<?xml version="1.0" encoding="UTF-8" standalone="no"?>
<!-- Created with Inkscape (http://www.inkscape.org/) -->

<svg
   xmlns:dc="http://purl.org/dc/elements/1.1/"
   xmlns:cc="http://creativecommons.org/ns#"
   xmlns:rdf="http://www.w3.org/1999/02/22-rdf-syntax-ns#"
   xmlns:svg="http://www.w3.org/2000/svg"
   xmlns="http://www.w3.org/2000/svg"
   xmlns:sodipodi="http://sodipodi.sourceforge.net/DTD/sodipodi-0.dtd"
   xmlns:inkscape="http://www.inkscape.org/namespaces/inkscape"
   version="1.1"
   id="svg2"
   width="433.18698"
   height="300.00006"
   viewBox="0 0 433.18698 300.00006"
   sodipodi:docname="blue-diamond-clipart-vector_csp15349757.svg"
   inkscape:version="0.92.3 (2405546, 2018-03-11)">
  <metadata
     id="metadata8">
    <rdf:RDF>
      <cc:Work
         rdf:about="">
        <dc:format>image/svg+xml</dc:format>
        <dc:type
           rdf:resource="http://purl.org/dc/dcmitype/StillImage" />
        <dc:title></dc:title>
      </cc:Work>
    </rdf:RDF>
  </metadata>
  <defs
     id="defs6" />
  <sodipodi:namedview
     pagecolor="#ffffff"
     bordercolor="#666666"
     borderopacity="1"
     objecttolerance="10"
     gridtolerance="10"
     guidetolerance="10"
     inkscape:pageopacity="0"
     inkscape:pageshadow="2"
     inkscape:window-width="1850"
     inkscape:window-height="971"
     id="namedview4"
     showgrid="false"
     inkscape:zoom="1.1390935"
     inkscape:cx="161.82728"
     inkscape:cy="123.51309"
     inkscape:window-x="67"
     inkscape:window-y="27"
     inkscape:window-maximized="0"
     inkscape:current-layer="svg2"
     fit-margin-top="0"
     fit-margin-left="0"
     fit-margin-right="0"
     fit-margin-bottom="0"
     inkscape:lockguides="true" />
  <g
     id="g12"
     transform="matrix(1.0310615,0,0,1.0310615,-22.54219,0)">
    <path
       style="fill:#14c0f2"
       d="M 208.37909,268.20106 C 146.14387,207.09226 83.929344,145.96267 21.86309,84.682365 l 2.318455,-2.279169 C 25.456695,81.149653 35.5,72.876093 46.5,64.017507 57.5,55.15892 79.883698,37.131014 96.24155,23.955493 L 125.9831,0 h 106.45093 106.45092 l 10.83607,8.75 c 5.95983,4.8125 29.16072,23.54155 51.55752,41.620111 C 423.67534,68.448671 442,83.797844 442,84.479384 c 0,0.681539 -23.0625,23.886736 -51.25,51.567106 -86.81619,85.25425 -103.33694,101.50617 -130.80999,128.68142 -14.60799,14.44965 -26.98299,26.25007 -27.5,26.22315 -0.517,-0.0269 -11.34442,-10.26441 -24.06092,-22.75 z"
       id="path20"
       inkscape:connector-curvature="0"
       sodipodi:nodetypes="ccssscccssssscc" />
    <path
       style="fill:#0d9fdd"
       d="M 208.37909,268.20106 C 136.51771,197.6446 77.021361,139.14216 51.181545,113.62956 L 21.86309,84.682365 24.181545,82.403196 C 25.456695,81.149653 35.5,72.876093 46.5,64.017507 57.5,55.15892 79.883698,37.131014 96.24155,23.955493 L 125.9831,0 h 106.45093 106.45092 l 10.83607,8.75 c 5.95983,4.8125 29.16072,23.54155 51.55752,41.620111 C 423.67534,68.448671 442,83.797844 442,84.479384 c 0,0.681539 -23.0625,23.886736 -51.25,51.567106 -86.81619,85.25425 -103.33694,101.50617 -130.80999,128.68142 -14.60799,14.44965 -26.98299,26.25007 -27.5,26.22315 -0.517,-0.0269 -11.34442,-10.26441 -24.06092,-22.75 z M 268.5,247.20855 c 12.1,-11.73832 25.15,-24.39765 29,-28.13187 6.00962,-5.82888 7.62169,-8.18925 11.39407,-16.68308 2.41674,-5.44148 9.22324,-20.4686 15.12555,-33.3936 21.1437,-46.30087 25.11592,-55.19779 24.78985,-55.52387 -0.32131,-0.3213 -8.0431,9.33347 -45.11713,56.41117 -9.79422,12.43699 -22.84422,28.84226 -29,36.45616 -6.15579,7.6139 -11.42043,14.5889 -11.6992,15.5 -0.27878,0.9111 -1.46163,3.45654 -2.62856,5.65654 -1.16693,2.2 -5.34265,11.65 -9.27939,21 -3.93674,9.35 -7.81639,18.47777 -8.62145,20.28393 -2.95535,6.63037 -3.52627,7.10347 26.03626,-21.57538 z m -28.10043,6.58929 C 244.02981,245.16164 247,237.83038 247,237.50613 c 0,-0.32424 1.29723,-3.38327 2.88273,-6.79783 2.7903,-6.00923 4.7242,-12.34216 4.28413,-14.02922 -0.11778,-0.4515 -0.60822,-3.3765 -1.08988,-6.5 C 252.59533,207.05559 250.37539,195.725 248.1438,185 c -2.2316,-10.725 -6.58339,-32.31901 -9.67065,-47.98669 -3.08726,-15.66768 -5.78479,-28.65828 -5.99451,-28.868 -0.54535,-0.54536 -2.65122,9.7414 -17.45395,85.25919 -2.25369,11.49747 -4.26777,21.17979 -4.47572,21.51626 -0.9877,1.59813 1.91866,11.46683 6.32949,21.49211 5.38198,12.23262 12.82022,29.69436 14.30721,33.58713 1.1896,3.11424 0.82395,3.75722 9.2139,-16.20216 z M 263,204.94035 c 0,-0.89162 9.36126,-22.16417 16.03605,-36.44035 2.31436,-4.95 5.23452,-11.475 6.48925,-14.5 1.25472,-3.025 5.73637,-12.925 9.95922,-22 4.22285,-9.075 8.57247,-18.75 9.66583,-21.5 1.09336,-2.75 3.78891,-8.77041 5.99011,-13.378683 2.20119,-4.608275 3.63258,-8.658275 3.18086,-9 -0.45173,-0.341724 -18.30856,-0.498341 -39.68186,-0.348036 l -38.86055,0.27328 0.70508,2.22672 c 0.38779,1.224695 0.83671,3.377576 0.9976,4.78418 0.16089,1.406603 0.98819,5.681599 1.83846,9.499999 0.85027,3.8184 2.06854,10.31754 2.70728,14.44254 0.63874,4.125 2.01889,10.84725 3.06701,14.93834 1.04811,4.09108 1.90566,8.50651 1.90566,9.81205 0,1.30555 0.88437,6.5083 1.96526,11.56167 3.42082,15.9929 9.07256,46.10666 9.05328,48.23794 -0.0263,2.90751 1.96639,4.70739 3.65767,3.30376 C 262.40429,206.2495 263,205.38847 263,204.94035 Z M 179.95727,170.82483 C 174.88275,159.64617 166.0491,140.24149 160.32694,127.7033 154.60478,115.16512 148.3947,101.44012 146.52676,97.203302 L 143.13051,89.5 125.44923,89.226453 c -15.38196,-0.237974 -17.6064,-0.0784 -17.10544,1.22707 0.50361,1.312374 13.80002,18.287277 39.57683,50.525867 4.16866,5.21366 9.60438,11.77412 12.07938,14.57879 8.78741,9.95789 10.56864,12.15929 11.52862,14.24809 1.24349,2.7057 16.76854,22.2299 17.27434,21.72411 0.20939,-0.2094 -3.77117,-9.52689 -8.84569,-20.70555 z m -43.9964,5.51844 C 134.23187,172.57947 130.20041,163.425 127.00205,156 117.01477,132.81445 109.02804,114.78054 105.44661,107.32813 103.55097,103.3836 102,99.728307 102,99.20525 102,97.288659 97.817717,88.867282 96.641785,88.416034 95.975158,88.160226 87.632591,88.074469 78.102748,88.225464 L 60.77576,88.5 l 10.782566,13 c 5.930411,7.15 12.168365,14.84877 13.86212,17.10839 1.693755,2.25961 5.779554,7.42559 9.079554,11.47995 3.3,4.05436 7.125,8.81606 8.5,10.58155 7.90473,10.14964 13.03506,16.56173 17.96142,22.44888 3.04622,3.64032 8.20958,10.13981 11.47414,14.44332 3.26456,4.30351 6.10057,7.32953 6.30224,6.7245 0.20168,-0.60503 -1.04794,-4.17953 -2.77693,-7.94332 z M 95.498539,81.834794 C 95.718048,81.615285 95.02102,75.600157 93.949586,68.467843 92.878153,61.335529 91.517359,52.125 90.925598,48 c -0.59176,-4.125 -1.41017,-7.845567 -1.818689,-8.267927 -0.40852,-0.42236 -3.978897,4.07764 -7.934173,10 -3.955276,5.92236 -10.384555,15.34679 -14.287288,20.943178 -3.902732,5.596388 -6.86617,10.546388 -6.585416,11 0.496572,0.802311 34.402057,0.955993 35.198507,0.159543 z M 143.14288,81.17315 C 144.94162,79.2897 165.88387,37 165.01783,37 c -0.55664,0 -2.70086,1.495496 -4.76495,3.323324 -2.06408,1.827828 -4.71352,3.971375 -5.88764,4.763436 -1.17412,0.792062 -6.29455,4.809066 -11.37872,8.926676 -19.4038,15.714898 -23.05124,18.603227 -28.39651,22.486564 -3.02822,2.2 -5.52522,4.45 -5.54888,5 -0.0483,1.12147 33.02126,0.804514 34.10175,-0.32685 z m 171.57955,0.437755 c 0.88551,-0.885511 -24.19856,-50.586912 -25.40967,-50.34654 -1.76446,0.350199 -51.49901,49.625287 -50.96308,50.492274 0.49625,0.802795 75.56747,0.659545 76.37275,-0.145734 z m 51.72529,-25.218014 c 1.8701,-11.49109 3.08711,-21.217683 2.70447,-21.614652 C 368.76955,34.381271 358.79127,29.96279 346.97824,24.959393 313.806,10.909323 308.07158,8.591334 307.65194,9.0627637 c -0.21406,0.2404799 -2.95309,4.0333603 -6.08672,8.4286233 l -5.69752,7.991386 2.81615,2.291656 C 300.23273,29.03484 313.2,39.224294 327.5,50.417661 c 14.3,11.193366 28.01047,21.955528 30.46771,23.915915 2.45724,1.960386 4.60544,3.426609 4.77378,3.258272 0.16833,-0.168337 1.83614,-9.707868 3.70623,-21.198957 z M 257.95187,52.166571 C 271.17834,39.333185 282,28.477249 282,28.042269 c 0,-0.43498 -11.17211,-5.372061 -24.82691,-10.97129 L 232.34619,6.8905615 208.09162,16.860094 c -13.34002,5.483242 -24.55541,10.278259 -24.9231,10.655592 -0.96974,0.995185 47.76107,48.652818 49.37701,48.289602 0.74702,-0.167909 12.17987,-10.805331 25.40634,-23.638717 z"
       id="path18"
       inkscape:connector-curvature="0"
       sodipodi:nodetypes="sscssscccssssscsscsscsscsssssssccsscsscsssscssccsccssscscscsssscssssccscssscscscscssccssscsscscscsssccccscscscscssscsssscscss" />
    <path
       style="fill:#0e64a8"
       d="M 208.37909,268.20106 C 136.51771,197.6446 77.021361,139.14216 51.181545,113.62956 L 21.86309,84.682365 24.181545,82.403196 C 25.456695,81.149653 35.5,72.876093 46.5,64.017507 57.5,55.15892 79.883698,37.131014 96.24155,23.955493 L 125.9831,0 h 106.45093 106.45092 l 10.83607,8.75 c 5.95983,4.8125 29.16072,23.54155 51.55752,41.620111 C 423.67534,68.448671 442,83.797844 442,84.479384 c 0,0.681539 -23.0625,23.886736 -51.25,51.567106 -86.81619,85.25425 -103.33694,101.50617 -130.80999,128.68142 -14.60799,14.44965 -26.98299,26.25007 -27.5,26.22315 -0.517,-0.0269 -11.34442,-10.26441 -24.06092,-22.75 z M 294.75,224.0831 c 2.8875,-2.27128 5.25106,-4.45664 5.25235,-4.85635 0.001,-0.39971 1.32825,-2.27813 2.94881,-4.17427 3.14532,-3.6802 49.42021,-104.43837 48.80825,-106.27426 -0.19627,-0.58881 -7.96728,8.55771 -17.26891,20.32561 -9.30163,11.76789 -27.0547,34.13874 -39.45128,49.713 -33.77678,42.43498 -33.28033,41.7441 -38.34346,53.36069 C 248.41754,251.17066 239,274.33985 239,275.71294 c 0,0.80937 11.3625,-9.54708 25.25,-23.01432 13.8875,-13.46725 27.6125,-26.34423 30.5,-28.61552 z M 241.00014,255 c 3.9774,-9.625 8.34059,-19.91096 9.69599,-22.85769 4.63287,-10.07222 5.14369,-13.00628 3.69431,-21.2196 -2.73306,-15.48765 -21.30537,-107.17097 -21.81234,-107.67795 -0.74686,-0.74685 -1.2864,1.11056 -2.97892,10.25524 -0.81436,4.4 -5.61693,28.925 -10.67237,54.5 -5.05544,25.575 -9.10858,48.3 -9.00697,50.5 0.18458,3.9967 0.95461,6.04488 13.50453,35.92051 7.93075,18.87949 8.52246,20.05247 9.55252,18.93685 0.43538,-0.47155 4.04584,-8.73236 8.02325,-18.35736 z M 263,204.80957 c 0,-0.52005 11.74099,-26.82395 26.09109,-58.45313 14.3501,-31.62917 25.86962,-57.72906 25.59894,-57.999745 -0.53174,-0.53174 -77.87856,-0.501501 -78.41071,0.03065 -0.17683,0.176827 4.63798,25.889695 10.69959,57.139685 6.0616,31.25 11.02109,57.55051 11.02109,58.44558 0,2.55234 2.09449,4.19386 3.67621,2.88115 C 262.40429,206.2495 263,205.32962 263,204.80957 Z m -55.01033,-16.09236 c 1.61047,-8.00503 4.31766,-22.12868 6.01596,-31.3859 1.6983,-9.25722 5.31679,-27.94715 8.0411,-41.53317 C 224.77103,102.21211 227,90.62461 227,90.048135 227,89.335922 214.98145,89 189.5,89 168.875,89 152,89.382934 152,89.850965 c 0,0.468031 2.74787,6.880531 6.10639,14.250005 3.35851,7.36946 7.0045,15.42403 8.1022,17.89903 1.0977,2.475 3.36181,7.425 5.03136,11 4.35518,9.32575 22.29111,48.88632 26.97604,59.5 3.90452,8.84565 5.68848,11.92886 6.45727,11.16007 0.21355,-0.21355 1.70593,-6.93783 3.31641,-14.94286 z M 170.95642,148.35825 C 158.76819,121.48621 147.6044,97.025 146.148,94 L 143.5,88.5 124.75,88.227935 C 112.48758,88.050005 106,88.308974 106,88.976391 106,89.883212 129.43099,119.85848 148.22903,143 c 3.79754,4.675 14.14218,17.725 22.98809,29 16.67666,21.25609 20.87083,26.24538 21.51839,25.59782 0.20973,-0.20972 -9.59087,-22.36753 -21.77909,-49.23957 z M 119.04486,137.41524 C 108.03846,112.16186 98.639692,90.825 98.158716,90 97.441586,88.769933 93.994741,88.450856 79.004805,88.22691 61.057983,87.95879 60.750636,87.989245 62.112697,89.900758 c 5.997143,8.416372 76.387163,95.099672 76.630823,94.368672 0.17214,-0.51642 -8.69225,-21.60081 -19.69866,-46.85419 z M 108.25555,159.25 C 91.578378,137.77732 79.474519,122.26553 70.606043,111 64.760919,103.575 58.520872,95.604535 56.739272,93.287856 L 53.5,89.075712 44,89.04987 34.5,89.024028 51.013617,105.26201 C 100.88234,154.29838 109.84372,163 110.47512,163 c 0.38112,0 -0.61769,-1.6875 -2.21957,-3.75 z M 95.510584,81.82275 c 0.614826,-0.614827 -5.547106,-41.202509 -6.387488,-42.073376 -0.398392,-0.412845 -3.533357,3.412155 -6.966588,8.5 -3.433232,5.087844 -9.867482,14.509042 -14.298334,20.935996 -4.430853,6.426953 -7.829203,12.051953 -7.551889,12.5 0.497163,0.80325 34.406103,0.935575 35.204299,0.13738 z M 143.1887,81.17315 C 144.81024,79.588215 166.06998,37 165.23962,37 c -0.50381,0 -9.01382,6.4125 -18.91115,14.25 -9.89733,7.8375 -22.32582,17.625 -27.61886,21.75 -5.29305,4.125 -9.64347,7.95 -9.66762,8.5 -0.0492,1.121154 32.9888,0.804917 34.14671,-0.32685 z m 171.64099,0.330494 c 0.84124,-0.841245 -24.08144,-50.51451 -25.3137,-50.452599 -1.66071,0.08344 -51.85199,49.596288 -51.25496,50.562157 0.59942,0.969726 75.59669,0.862416 76.56866,-0.109558 z M 223.74028,80.593057 C 224.12164,80.211695 213.53771,69.030628 200.22043,55.746241 185.06098,40.62424 175.65918,31.949377 175.07648,32.546405 174.16054,33.484861 151,79.548565 151,80.431808 c 0,0.861757 8.62932,1.067757 40.27345,0.961413 17.47539,-0.05873 32.08546,-0.418802 32.46683,-0.800164 z M 108.74842,73.967588 c 3.42071,-2.767827 12.68491,-10.080327 20.5871,-16.25 C 164.33581,30.390959 169,26.578423 169,25.295643 169,23.342879 158.0597,8.0001143 156.66676,7.9994104 154.50788,7.9983196 94,34.20556 94,35.141706 c 0,0.509287 1.575,10.408707 3.5,21.99871 1.925,11.590003 3.5,21.249774 3.5,21.466158 0,1.174824 2.16563,-0.121741 7.74842,-4.638986 z M 365.37325,69.75 c 4.22876,-24.304372 5.71938,-35.05133 4.95821,-35.74713 -0.4573,-0.41803 -14.48855,-6.521759 -31.18055,-13.563843 -23.22929,-9.800063 -30.72617,-12.5659296 -31.95647,-11.7898795 -0.88406,0.5576505 -4.03543,4.4757375 -7.00304,8.7068615 -4.68695,6.682506 -5.21822,7.906749 -4.04476,9.320686 0.743,0.895255 13.72646,11.321584 28.85213,23.16962 C 340.12445,61.694352 354.525,73.09795 357,75.187644 c 2.475,2.089694 5.00936,3.802349 5.63192,3.8059 0.6463,0.0037 1.82238,-3.961968 2.74133,-9.243544 z M 258.33726,53.307733 C 272.17677,39.726986 283.5,28.194782 283.5,27.680612 c 0,-0.51417 -11.4337,-5.652007 -25.40823,-11.417415 L 232.68354,5.7806361 220.09177,10.820203 C 194.35695,21.119971 182.47271,26.146469 181.5,27.142778 c -0.67444,0.690802 7.30183,9.123285 24.5,25.901301 14.025,13.682371 25.87677,24.894787 26.33726,24.916479 0.4605,0.02169 12.1605,-11.072078 26,-24.652825 z M 195.99723,14.397399 C 206.44875,10.215969 215,6.3909689 215,5.8973993 215,5.390995 203.8897,5 189.5,5 171.96862,5 164,5.3361872 164,6.0758162 164,7.9478474 174.30761,22 175.68079,22 c 0.72252,0 9.86491,-3.42117 20.31644,-7.602601 z m 98.68379,-0.65228 C 296.98058,10.35749 298.64152,7.2289904 298.372,6.792897 298.10248,6.3568037 287.91852,6 275.74098,6 262.64624,6 253.98815,6.36625 254.55,6.8964091 c 0.5225,0.4930249 3.2,1.8021787 5.95,2.9092305 2.75,1.1070514 9.00794,3.6864224 13.90652,5.7319354 10.05911,4.200398 13.64583,5.331796 15.09348,4.761095 0.55,-0.216824 2.88146,-3.165922 5.18102,-6.553551 z"
       id="path16"
       inkscape:connector-curvature="0"
       sodipodi:nodetypes="sscssscccssssscsccccssssscscscsscscsssccsscscsssssssssscsscsssscssssscsssscccsssccsssccsssccsccscscsscssssssssscscscsscsssscssscsssssssssscssss" />
    <path
       style="fill:#103169"
       d="M 184,243.8409 C 157.875,217.90983 135.32129,195.74534 133.88064,194.58647 130.45884,191.83395 23.731516,86.946813 22.743824,85.365876 21.93105,84.064918 25.553916,81.032571 88.815044,30.064119 L 126.13009,0 h 106.34329 106.34328 l 5.81588,4.75 c 3.19873,2.6125 15.29345,12.4 26.87716,21.75 11.5837,9.35 32.18281,25.982304 45.77579,36.960675 C 430.87847,74.439046 442,83.939557 442,84.572922 c 0,0.633364 -22.8375,23.584048 -50.75,51.001508 -27.9125,27.41747 -74.31665,73.03194 -103.12034,101.36551 -49.90444,49.08991 -54.96662,53.96205 -56.12966,54.0224 -0.275,0.0143 -21.875,-21.19038 -48,-47.12144 z M 260.36505,258.25 C 272.53927,246.2875 282.725,236.217 283,235.87111 284.30712,234.22703 298.28367,223 299.02327,223 c 0.46308,0 1.13024,-0.90832 1.4826,-2.01849 0.35235,-1.11016 1.87133,-3.36591 3.3755,-5.01277 1.51621,-1.66003 10.7002,-20.47852 20.61028,-42.23152 27.60338,-60.59052 31.65665,-69.79233 31.26288,-70.97363 -0.61683,-1.85048 0.66102,-3.408037 -55.1617,67.23641 -9.34403,11.825 -19.48747,24.58378 -22.54098,28.35284 -11.67768,14.41416 -17.65321,22.69229 -20.44084,28.31746 -4.9152,9.91838 -5.61101,11.46093 -5.61101,12.43908 0,0.52101 -3.3266,8.92204 -7.39245,18.66896 C 235.9386,278.56012 235.44875,280 237.04767,280 c 0.65034,0 11.14316,-9.7875 23.31738,-21.75 z m -35.7369,11.47822 c -1.3835,-3.45819 -4.79081,-11.60167 -7.5718,-18.09662 -2.78099,-6.49494 -3.23245,-8.95643 -5.05635,-13.35226 -1.86169,-4.4869 -4.25787,-8.87995 -6.00355,-13.27934 -1.18879,-3.025 -2.56961,-4.94935 -4.07894,-7.28896 -0.58359,-0.90463 -1.25499,-1.75023 -1.91751,-2.59876 -3.16782,-4.05722 -2.12825,-3.34384 -9.83133,-11.90839 -2.74709,-3.0543 -38.94581,-48.44028 -49.66867,-62.27461 -1.65,-2.12878 -6.57545,-8.49623 -10.94544,-14.1499 -9.98535,-12.91851 -18.69094,-22.97633 -19.33222,-22.33505 -0.27048,0.27047 1.89043,5.79365 4.80201,12.27372 22.64043,50.38896 41.14984,91.12733 42.20959,92.90139 3.11206,5.20971 6.94238,8.74807 10.71038,12.86289 1.45267,1.58638 3.07628,3.00791 4.5772,4.54872 1.26884,1.30256 2.4468,2.6932 3.74259,3.96895 5.01729,4.9397 7.56194,6.4125 15.59173,14.25 8.02979,7.8375 19.10964,18.64481 24.62189,24.01626 10.97845,10.69801 12.27488,10.77149 8.15042,0.46196 z m 27.23539,-77.37293 c -3.52321,-16.66079 -5.50779,-27.97766 -9.85983,-50.12722 -4.35203,-22.14957 -8.1848,-40.71207 -8.51727,-41.25 -1.39291,-2.253784 -2.43669,-0.56875 -3.88509,6.27193 -0.8443,3.9875 -6.09165,30.425 -11.6608,58.75 l -10.12572,51.5 1.6515,6 c 0.90832,3.3 3.37738,9.825 5.48681,14.5 2.10943,4.675 6.62584,15.1375 10.03646,23.25 3.41063,8.1125 6.55312,14.75 6.98332,14.75 0.43021,0 1.21922,-0.5625 1.75336,-1.25 0.53414,-0.6875 3.78484,-8 7.22376,-16.25 9.00387,-21.60035 8.91095,-21.38652 12.37098,-28.46746 2.94631,-6.02964 3.14505,-7.10832 2.93572,-15.9339 -1.46891,-7.50517 -2.74481,-14.15141 -4.3932,-21.74335 z m 7.15533,17.96383 c 0,0 2.03065,1.50706 4.4161,-4.31912 1.98561,-4.84962 30.4503,-67.87584 46.6818,-103.36237 C 313.35255,95.563332 316,89.161099 316,88.410449 c 0,-1.124976 -6.8239,-1.412761 -38.83129,-1.637634 -21.3572,-0.150048 -39.61511,-0.120981 -40.57313,0.06459 -2.12568,0.411761 -2.61694,-2.870018 7.05992,47.162595 4.09549,21.175 8.77917,45.43175 10.4082,53.90388 1.62903,8.47214 1.54873,8.60567 3.15364,18.9129 0.2515,1.61521 1.80153,3.50234 1.80153,3.50234 z M 206.8729,205.25 c 0.58981,-2.6125 1.9793,-9.475 3.08776,-15.25 1.10845,-5.775 4.24203,-21.975 6.9635,-36 C 228.09428,96.435174 229.23764,90.06167 228.66291,88.563945 228.13275,87.182371 223.51822,87 189.0904,87 c -25.53082,0 -39.1908,0.353441 -39.60571,1.024767 -0.34833,0.563622 2.15661,7.201122 5.56656,14.750003 21.76914,48.1922 38.9306,85.95109 44.98434,98.97523 2.10907,4.5375 4.26898,8.25 4.7998,8.25 0.53082,0 1.4477,-2.1375 2.03751,-4.75 z M 196,202.12212 C 196,200.67996 193.83354,195.76964 169.25318,141.5 156.29937,112.9 145.20562,88.973833 144.6004,88.33074 143.85136,87.534829 137.59289,87.09901 125,86.965833 103.06221,86.733828 103.99948,86.676508 104.00202,88.25 c 0.002,1.123245 9.65742,13.58382 35.76111,46.14979 12.92906,16.1298 20.36137,25.46906 33.10602,41.60021 6.30077,7.975 13.71137,17.3125 16.468,20.75 4.69635,5.85631 6.66285,7.44186 6.66285,5.37212 z m 112.08053,-47.33708 c 16.70404,-21.05677 35.22689,-44.33753 41.1619,-51.73502 5.935,-7.397481 10.63377,-13.922481 10.44171,-14.499995 -0.22342,-0.671767 -7.24767,-1.14784 -19.49898,-1.321556 l -19.14977,-0.271531 -4.59878,9.771531 C 313.90728,102.10281 310.04838,110.55 307.86127,115.5 c -2.18711,4.95 -5.94109,13.275 -8.34218,18.5 -19.73333,42.94164 -28.1357,61.7968 -28.96575,65 -0.55825,2.15432 -0.10829,1.9172 3.25419,-1.71496 2.14611,-2.31823 17.56896,-21.44323 34.273,-42.5 z M 141.43131,186.75 c -0.3869,-1.2375 -5.63484,-13.5 -11.66209,-27.25 -6.02725,-13.75 -14.25237,-32.65 -18.27805,-42 C 98.275843,86.806184 98.533205,87.278328 94.791867,86.864294 88.718415,86.192176 60,87.169387 60,88.048167 60,89.430339 140.02275,189 141.13358,189 c 0.58004,0 0.70529,-0.94646 0.29773,-2.25 z m 194.19663,-12.85795 c 4.87963,-6.12743 11.818,-14.79732 15.4186,-19.26642 3.60059,-4.4691 15.75059,-19.5511 27,-33.51557 11.2494,-13.96447 21.44978,-26.56447 22.6675,-28.000002 C 404.91688,88.155465 404.44444,88 385.18521,88 h -17.81479 l -1.82073,3.75 c -1.0014,2.0625 -3.74949,8.25 -6.10687,13.75 -6.45362,15.05694 -10.13667,23.51099 -22.83648,52.41871 C 330.22285,172.44901 325,184.73806 325,185.22773 c 0,1.6761 1.76551,-0.20698 10.62794,-11.33568 z m -213.8545,-0.11507 C 120.94983,172.52 114.10222,163.61845 106.55652,153.99578 99.010828,144.3731 90.961235,134.10117 88.668539,131.16927 81.281637,121.72289 75.726922,114.65131 64.720551,100.68165 L 53.941102,87 H 42.970551 C 36.541457,87 32,87.401989 32,87.971063 c 0,0.868834 39.370061,40.071227 76.26747,75.942667 12.61568,12.26488 17.34035,15.71526 13.50597,9.86325 z M 390.47576,128.64785 C 412.20957,107.27917 429.74207,89.391671 429.43687,88.897853 429.13167,88.404034 425.2567,88 420.82581,88 c -7.55126,0 -8.20367,0.172349 -10.40992,2.75 -6.00833,7.019794 -11.40011,13.63602 -16.91589,20.75738 -3.3,4.26059 -7.575,9.65509 -9.5,11.98778 -1.925,2.33268 -5.22879,6.51784 -7.34177,9.30035 -2.11297,2.78251 -5.59343,7.22932 -7.73436,9.8818 -2.14094,2.65248 -6.45379,8.19769 -9.58412,12.32269 -3.13033,4.125 -6.84987,8.79672 -8.26563,10.3816 -1.41577,1.58488 -2.02068,2.70988 -1.34425,2.5 0.67643,-0.20988 19.01208,-17.86507 40.74589,-39.23375 z M 95.633789,82.525829 C 96.864559,81.625868 96.62651,78.51826 93.945725,60.489061 92.229235,48.945077 90.411032,39.069286 89.905274,38.542857 88.503934,37.084244 88.191752,37.489342 69.131234,65.5 c -4.116866,6.05 -8.334456,12.109913 -9.372421,13.466473 -1.801029,2.353842 -1.806242,2.525678 -0.114155,3.762962 2.201496,1.609773 33.753304,1.431271 35.989131,-0.203606 z M 143.34404,82.5131 C 144.66612,81.191025 165.60143,41.152956 167.27289,36.75 167.69649,35.63415 167.46107,35 166.62323,35 164.80609,35 107,80.488939 107,81.918885 107,83.736649 109.28983,84 125.09524,84 c 13.5005,0 17.05121,-0.289309 18.2488,-1.4869 z m 172.39174,0.351122 c 0.8477,-0.847704 -2.13572,-7.675046 -11.76263,-26.917883 -7.09412,-14.180158 -13.40757,-26.096788 -14.02988,-26.481401 -1.51543,-0.936583 -54.45819,51.892894 -53.52208,53.407551 0.99121,1.60381 77.71051,1.595814 79.31459,-0.0083 z M 56.992009,76 C 66.914741,62.047218 75.000386,49.667053 74.510406,49.177073 73.928835,48.595501 67.191985,53.262994 58.926094,59.974354 39.064962,76.100289 34,80.519158 34,81.720846 c 0,1.061517 1.985123,1.292062 9.184718,1.06668 L 52.369435,82.5 Z M 228,81.856114 C 228,80.091305 176.96433,30.5 175.14812,30.5 c -1.09352,0 -5.48867,7.781983 -13.83726,24.5 -6.7291,13.475 -12.25185,25.2875 -12.27279,26.25 -0.0356,1.637773 2.49505,1.75 39.46193,1.75 28.97906,0 39.5,-0.304677 39.5,-1.143886 z m 126.28807,0.297162 c 1.60631,-0.634376 1.50467,-0.963272 -1,-3.235688 C 350.28023,76.188664 334.12655,63.239886 324.67,55.977371 321.4635,53.514817 317.14459,50.15 315.07242,48.5 304.34408,39.957375 299.89322,36.773443 299.38715,37.279515 c -0.66857,0.668569 20.31776,42.282536 22.34672,44.311494 1.09096,1.090966 4.72211,1.393127 16.08756,1.338706 8.07321,-0.03866 15.4832,-0.388055 16.46664,-0.776439 z m 50.40325,-0.724518 c 0.1959,-0.589183 -3.00492,-5.989183 -7.11293,-12 C 393.47038,63.417941 387.11613,54.1125 383.45783,48.75 379.79954,43.3875 376.43027,39 375.97058,39 c -1.29639,0 -1.74704,2.186693 -4.52753,21.969143 -1.42774,10.158029 -2.81306,18.820529 -3.07849,19.25 -1.46393,2.368685 1.72468,2.81179 18.37611,2.553634 11.38943,-0.176577 17.72009,-0.650572 17.95065,-1.344019 z M 429,81.520595 c 0,-0.727678 -7.81663,-7.755379 -14,-12.586988 -3.025,-2.363697 -5.725,-4.553225 -6,-4.865619 C 407.07029,61.875878 396.97159,54 396.09051,54 c -1.82762,0 -1.23152,2.029378 1.72013,5.856096 1.54586,2.004147 5.4464,7.468904 8.66786,12.143904 3.22147,4.675 6.34418,8.830609 6.93936,9.234687 C 414.5984,82.036182 429,82.300429 429,81.520595 Z M 136.81081,53.643475 C 155.61487,38.872387 171,26.322958 171,25.755855 171,24.174578 159.71449,7.9175695 157.96788,6.9828086 156.91982,6.4219043 146.36919,10.410792 124.96367,19.460746 95.753936,31.810216 93.477247,32.951606 93.182388,35.393904 c -0.382451,3.167811 5.452658,40.133007 6.856342,43.434646 0.54448,1.280702 1.34838,2.180702 1.78643,2 0.43806,-0.180703 16.1816,-12.413986 34.98565,-27.185075 z M 364.89913,78.75 C 365.81672,76.320021 372,38.153152 372,34.919214 372,33.824381 371.00548,32.549477 369.75,32.034863 368.5125,31.52762 361.2,28.433089 353.5,25.158128 317.08914,9.6718739 307.85488,5.9716578 306.97512,6.5153755 305.19895,7.6131108 294,24.015174 294,25.518835 c 0,0.822908 7.3125,7.288268 16.25,14.367467 32.61079,25.830299 52.26763,41.061863 53.02475,41.087482 0.42611,0.01442 1.15708,-0.986284 1.62438,-2.223784 z M 259.53967,53.824617 C 273.58636,39.978156 284.9488,28.00073 284.78955,27.208115 284.50959,25.814738 235.48261,5 232.48061,5 231.18384,5 224.22753,7.729159 192.5,20.685526 c -6.05,2.4706 -11.6424,5.110527 -12.42755,5.866505 -1.22471,1.179199 2.25655,4.99672 24.5,26.866456 14.26015,14.020573 26.71511,25.512102 27.67767,25.536732 0.98049,0.02509 12.98139,-11.026389 27.28955,-25.130602 z M 197.42742,15.24938 C 209.4875,10.437221 219.5375,5.9375 219.76075,5.25 220.0792,4.2693487 213.89982,4 191.08333,4 167.40738,4 162,4.249732 162,5.343171 c 0,2.2087851 11.86177,18.672847 13.44113,18.656209 0.0324,-3.41e-4 9.92621,-3.937841 21.98629,-8.75 z m -74.64458,1.341229 C 145.9041,6.5211932 147.08207,5.94181 146.46462,4.9427507 146.14416,4.4242378 141.95865,4 137.16349,4 c -9.84944,0 -9.22293,-0.2923633 -21.85509,10.198781 -13.25791,11.010838 -12.7152,11.184506 7.47444,2.391828 z M 296.92493,14.364275 C 300.23886,9.6146259 302.7099,5.3396259 302.41612,4.8642748 302.12233,4.3889236 289.30852,4 273.94098,4 252.04994,4 246,4.274431 246,5.2674289 c 0,1.3717186 39.0396,17.5067671 42.69979,17.6478061 1.67187,0.06442 3.6458,-1.987695 8.22514,-8.55096 z M 357,21.544911 c 0,-0.250299 -4.22579,-4.008115 -9.39065,-8.350702 -9.10421,-7.6547779 -9.58462,-7.9143231 -15.75,-8.5090352 C 328.36171,4.3477911 323.925,4.4444625 322,4.8999991 l -3.5,0.8282482 3.5,1.571545 c 32.64919,14.6599037 35,15.6166927 35,14.2451187 z"
       id="path14"
       inkscape:connector-curvature="0"
       sodipodi:nodetypes="sssscccsssssscsscsccssscssssscsacaacsscssaaassccsccsccscsssccccsssscssscscssscsssssscscsssssscscsssssscssssscscssscsssssccsscssscssscscccscsssssssssccsssccscsccssssscsssscsscsssccsccscsscscsssscccssscssccscssscssccscsscscsscsscsscsssccssccscsscss" />
  </g>
</svg>
