<?xml version="1.0" encoding="UTF-8" standalone="no"?>
<!-- Created with Inkscape (http://www.inkscape.org/) -->

<svg
   xmlns:dc="http://purl.org/dc/elements/1.1/"
   xmlns:cc="http://creativecommons.org/ns#"
   xmlns:rdf="http://www.w3.org/1999/02/22-rdf-syntax-ns#"
   xmlns:svg="http://www.w3.org/2000/svg"
   xmlns="http://www.w3.org/2000/svg"
   xmlns:xlink="http://www.w3.org/1999/xlink"
   xmlns:sodipodi="http://sodipodi.sourceforge.net/DTD/sodipodi-0.dtd"
   xmlns:inkscape="http://www.inkscape.org/namespaces/inkscape"
   width="221.93358mm"
   height="143.37769mm"
   viewBox="0 0 221.93358 143.37769"
   version="1.1"
   id="svg866"
   sodipodi:docname="healthium.svg"
   inkscape:version="0.92.3 (2405546, 2018-03-11)">
  <defs
     id="defs860">
    <linearGradient
       inkscape:collect="always"
       id="linearGradient6067">
      <stop
         style="stop-color:#c7c8c8;stop-opacity:1"
         offset="0"
         id="stop6063" />
      <stop
         style="stop-color:#4b9696;stop-opacity:1"
         offset="1"
         id="stop6065" />
    </linearGradient>
    <linearGradient
       inkscape:collect="always"
       xlink:href="#linearGradient6067"
       id="linearGradient6071"
       gradientUnits="userSpaceOnUse"
       x1="44.260387"
       y1="52.979389"
       x2="159.43822"
       y2="39.912621" />
  </defs>
  <sodipodi:namedview
     id="base"
     pagecolor="#ffffff"
     bordercolor="#666666"
     borderopacity="1.0"
     inkscape:pageopacity="0.0"
     inkscape:pageshadow="2"
     inkscape:zoom="0.7071068"
     inkscape:cx="481.41312"
     inkscape:cy="235.91744"
     inkscape:document-units="mm"
     inkscape:current-layer="layer6"
     showgrid="false"
     inkscape:window-width="1853"
     inkscape:window-height="1025"
     inkscape:window-x="67"
     inkscape:window-y="27"
     inkscape:window-maximized="1"
     fit-margin-top="0"
     fit-margin-left="0"
     fit-margin-right="0"
     fit-margin-bottom="0"
     showborder="true" />
  <metadata
     id="metadata863">
    <rdf:RDF>
      <cc:Work
         rdf:about="">
        <dc:format>image/svg+xml</dc:format>
        <dc:type
           rdf:resource="http://purl.org/dc/dcmitype/StillImage" />
        <dc:title></dc:title>
      </cc:Work>
    </rdf:RDF>
  </metadata>
  <g
     inkscape:groupmode="layer"
     id="layer11"
     inkscape:label="frame"
     style="display:none">
    <rect
       style="display:inline;opacity:0.63999999;fill:#ff0000;fill-opacity:0.76960784;stroke:none;stroke-width:0.07937501;stroke-linecap:round;stroke-miterlimit:3.0999999;stroke-dasharray:none;stroke-opacity:0.73796841"
       id="rect5957"
       width="212.34874"
       height="132.9149"
       x="5.3435802"
       y="5.0318584" />
  </g>
  <g
     inkscape:label="background"
     id="g5977"
     inkscape:groupmode="layer">
    <rect
       y="5.0318584"
       x="5.3435802"
       height="132.9149"
       width="212.34874"
       id="rect5975"
       style="display:inline;opacity:0.63999999;fill:#ffffff;fill-opacity:0.87843138;stroke:#000000;stroke-width:0.07937501;stroke-linecap:round;stroke-miterlimit:3.0999999;stroke-dasharray:none;stroke-opacity:1" />
  </g>
  <g
     inkscape:label="guides"
     inkscape:groupmode="layer"
     id="layer1"
     transform="translate(7.639984,-4.3524885)"
     style="display:none">
    <path
       inkscape:connector-curvature="0"
       id="path1455"
       d="m 42.693791,46.647469 c -0.204777,0.945885 -0.906507,2.825157 -1.559404,4.176159 -2.837704,5.871911 -8.835004,9.582174 -15.488708,9.582174 -9.65393,0 -17.2380273,-7.67547 -17.2546188,-17.4625 -0.00635,-3.745285 0.9309375,-6.631376 3.3081548,-10.186458 1.054135,-1.57644 13.564601,-14.145654 14.085788,-14.151935 0.430826,-0.0052 13.184807,12.956273 14.125975,14.355781 2.804729,4.170603 3.791884,9.025755 2.782813,13.686779 z M 42.158915,38.445386 C 40.939384,34.348247 39.424208,32.359104 31.792907,24.836746 l -6.155894,-6.068015 -6.236819,6.200307 c -7.213213,7.170986 -8.828241,9.286769 -10.0647764,13.185457 -0.6469081,2.039646 -0.7651498,6.241037 -0.2418426,8.593203 2.074096,9.322663 11.499848,15.205374 20.624179,12.871762 4.006744,-1.024752 7.88675,-3.727328 10.067055,-7.012095 1.146651,-1.727502 2.438289,-4.884907 2.779231,-6.793823 0.335483,-1.878354 0.133051,-5.560097 -0.405125,-7.368156 z m -3.74709,2.080064 c -0.691224,0.149505 -2.000912,0.446469 -2.910417,0.659916 -0.933109,0.218987 -1.653646,0.279728 -1.653646,0.139398 0,-0.282861 3.961911,-4.833739 4.363286,-5.01192 0.300837,-0.133551 1.437217,2.506559 1.44942,3.367389 0.0067,0.471541 -0.215104,0.621671 -1.248643,0.845217 z M 34.45083,36.328719 c -1.369013,1.236927 -2.737845,2.424425 -3.041852,2.638886 -0.538408,0.379819 -0.54792,0.364254 -0.366916,-0.600578 0.102201,-0.544777 0.65623,-2.387087 1.231178,-4.094025 0.574945,-1.706936 1.045355,-3.337949 1.045355,-3.624474 0,-0.402034 0.366761,-0.160465 1.606699,1.058264 0.883684,0.868572 1.69849,1.757813 1.810676,1.976094 0.149328,0.290547 -0.462897,0.999408 -2.28514,2.645833 z m -4.346525,-2.778125 c -1.172009,2.328334 -2.178407,4.282943 -2.236444,4.343577 -0.592643,0.619186 -1.366237,-6.387692 -1.416034,-12.825819 -0.0078,-1.003443 -0.160851,-1.795185 -0.409273,-2.116667 -0.392864,-0.508399 -0.400887,-0.508399 -0.79375,0 -0.317022,0.410252 -0.401453,1.474986 -0.419624,5.291667 -0.02416,5.076655 -0.468837,10.069742 -0.896776,10.069742 -0.323589,0 -2.149589,-2.946082 -2.377861,-3.836458 -0.369078,-1.43959 -2.062938,-5.55625 -2.286201,-5.55625 -0.361154,0 -1.29558,1.012635 -1.29558,1.404017 0,0.190127 0.473014,1.559438 1.051142,3.042914 1.1415,2.929083 1.976363,5.842926 1.741413,6.077876 -0.286538,0.286536 -1.583833,-0.627782 -3.952598,-2.785745 -1.317824,-1.200546 -2.550977,-2.182812 -2.74034,-2.182812 -0.189362,0 -0.4794,0.296524 -0.644528,0.658939 -0.281109,0.616966 -0.145919,0.818452 2.122339,3.163126 1.427618,1.475713 2.422572,2.723676 2.422572,3.038612 0,0.61716 -0.192802,0.598422 -4.050364,-0.393591 l -2.330572,-0.599334 -0.271614,0.704146 c -0.149387,0.387278 -0.213284,1.150654 -0.141993,1.696392 0.07294,0.558345 0.02493,0.927542 -0.109793,0.84428 -0.363806,-0.224846 -0.285887,-2.442178 0.118918,-3.384042 0.803704,-1.869988 1.758334,-4.435348 1.758334,-4.725135 0,-0.480473 4.442831,-5.14894 8.821103,-9.269101 1.431869,-1.347454 2.774379,-2.777339 2.983357,-3.177521 0.21663,-0.41483 0.601594,-0.727604 0.895541,-0.727604 0.29274,0 0.68195,0.314476 0.900517,0.727604 0.211714,0.400182 1.583992,1.915996 3.049503,3.368474 1.465508,1.452478 2.658933,2.702634 2.652048,2.778125 -0.0069,0.07549 -0.971431,2.042255 -2.143442,4.370588 z"
       style="fill:#a1a4a6;stroke-width:0.26458335"
       sodipodi:nodetypes="csssscscsscssssssscsscccssscsccsscccccssssscsssssccsccssscscccs" />
    <text
       xml:space="preserve"
       style="font-style:normal;font-variant:normal;font-weight:normal;font-stretch:normal;font-size:10.58333302px;line-height:1.25;font-family:Ebrima;-inkscape-font-specification:Ebrima;text-align:start;letter-spacing:0px;word-spacing:0px;text-anchor:start;fill:#000000;fill-opacity:1;stroke:none;stroke-width:0.26458332"
       x="10.447753"
       y="101.15163"
       id="text5823"><tspan
         sodipodi:role="line"
         x="10.447753"
         y="110.68461"
         style="font-style:normal;font-variant:normal;font-weight:normal;font-stretch:normal;font-size:3.52777767px;font-family:Ebrima;-inkscape-font-specification:'Ebrima, Normal';font-variant-ligatures:normal;font-variant-caps:normal;font-variant-numeric:normal;font-feature-settings:normal;text-align:start;writing-mode:lr-tb;text-anchor:start;stroke-width:0.26458332"
         id="tspan5841" /></text>
    <flowRoot
       xml:space="preserve"
       id="flowRoot5845"
       style="font-style:normal;font-variant:normal;font-weight:normal;font-stretch:normal;font-size:40px;line-height:1.25;font-family:Ebrima;-inkscape-font-specification:Ebrima;text-align:start;letter-spacing:0px;word-spacing:0px;text-anchor:start;fill:#000000;fill-opacity:1;stroke:none"
       transform="matrix(0.26458333,0,0,0.26458333,-7.6918221,-0.18377686)"><flowRegion
         id="flowRegion5847"><rect
           id="rect5849"
           width="265.29294"
           height="134.34187"
           x="20.040405"
           y="298.99155" /></flowRegion><flowPara
         id="flowPara5851" /></flowRoot>    <text
       xml:space="preserve"
       style="font-style:normal;font-variant:normal;font-weight:normal;font-stretch:normal;font-size:10.58333302px;line-height:1.25;font-family:Ebrima;-inkscape-font-specification:Ebrima;text-align:start;letter-spacing:0px;word-spacing:0px;text-anchor:start;fill:#000000;fill-opacity:1;stroke:none;stroke-width:0.26458332"
       x="16.517555"
       y="86.731842"
       id="text5855"><tspan
         sodipodi:role="line"
         id="tspan5853"
         x="16.517555"
         y="96.264824"
         style="stroke-width:0.26458332" /></text>
    <text
       xml:space="preserve"
       style="font-style:normal;font-variant:normal;font-weight:normal;font-stretch:normal;font-size:10.58333302px;line-height:1.25;font-family:Ebrima;-inkscape-font-specification:Ebrima;text-align:start;letter-spacing:0px;word-spacing:0px;text-anchor:start;fill:#000000;fill-opacity:1;stroke:none;stroke-width:0.26458332"
       x="15.79776"
       y="86.136528"
       id="text5859"><tspan
         sodipodi:role="line"
         id="tspan5857"
         x="15.79776"
         y="95.66951"
         style="font-style:normal;font-variant:normal;font-weight:normal;font-stretch:normal;font-size:7.05555534px;font-family:Ebrima;-inkscape-font-specification:'Ebrima, Normal';font-variant-ligatures:normal;font-variant-caps:normal;font-variant-numeric:normal;font-feature-settings:normal;text-align:start;writing-mode:lr-tb;text-anchor:start;stroke-width:0.26458332" /></text>
  </g>
  <g
     inkscape:groupmode="layer"
     id="layer5"
     inkscape:label="trapeze"
     transform="translate(-0.05183806,-4.5362655)">
    <path
       style="opacity:0.63999999;fill:url(#linearGradient6071);fill-opacity:1;stroke:none;stroke-width:0.079375;stroke-linecap:round;stroke-miterlimit:3.0999999;stroke-dasharray:none;stroke-opacity:0.73796841"
       d="M 5.3954182,9.5681238 H 217.73747 L 217.80988,48.749475 5.3954182,96.449533 Z"
       id="rect1514"
       inkscape:connector-curvature="0"
       sodipodi:nodetypes="ccccc" />
  </g>
  <g
     inkscape:groupmode="layer"
     id="layer6"
     inkscape:label="Nom"
     style="display:inline"
     transform="translate(-0.05183806,-4.5362655)">
    <text
       xml:space="preserve"
       style="font-style:normal;font-variant:normal;font-weight:normal;font-stretch:normal;font-size:10.58333302px;line-height:1.25;font-family:Ebrima;-inkscape-font-specification:Ebrima;text-align:start;letter-spacing:0px;word-spacing:0px;text-anchor:start;fill:#000000;fill-opacity:1;stroke:none;stroke-width:0.26458332"
       x="18.324379"
       y="71.624931"
       id="text5789"><tspan
         sodipodi:role="line"
         x="18.324379"
         y="71.624931"
         style="stroke-width:0.26458332"
         id="tspan5791">Michel Combes</tspan></text>
    <text
       xml:space="preserve"
       style="font-style:normal;font-variant:normal;font-weight:normal;font-stretch:normal;font-size:10.58333302px;line-height:1.25;font-family:Ebrima;-inkscape-font-specification:Ebrima;text-align:start;letter-spacing:0px;word-spacing:0px;text-anchor:start;fill:#000000;fill-opacity:1;stroke:none;stroke-width:0.26458332"
       x="57.63485"
       y="43.570267"
       id="text5797"><tspan
         sodipodi:role="line"
         id="tspan5795"
         x="57.63485"
         y="43.570267"
         style="font-style:normal;font-variant:normal;font-weight:normal;font-stretch:normal;font-size:14.11111069px;font-family:Loma;-inkscape-font-specification:Loma;stroke-width:0.26458332">Healthium Technologies</tspan></text>
    <text
       xml:space="preserve"
       style="font-style:normal;font-variant:normal;font-weight:normal;font-stretch:normal;font-size:10.58333302px;line-height:1.25;font-family:Ebrima;-inkscape-font-specification:Ebrima;text-align:start;letter-spacing:0px;word-spacing:0px;text-anchor:start;fill:#000000;fill-opacity:1;stroke:none;stroke-width:0.26458332"
       x="199.50395"
       y="77.240852"
       id="text5801"><tspan
         sodipodi:role="line"
         x="199.50395"
         y="77.240852"
         style="font-style:normal;font-variant:normal;font-weight:normal;font-stretch:normal;font-size:10.58333302px;font-family:Ebrima;-inkscape-font-specification:'Ebrima, Normal';font-variant-ligatures:normal;font-variant-caps:normal;font-variant-numeric:normal;font-feature-settings:normal;text-align:end;writing-mode:lr-tb;text-anchor:end;stroke-width:0.26458332"
         id="tspan5803">bringing</tspan><tspan
         sodipodi:role="line"
         x="199.50395"
         y="90.470016"
         style="font-style:normal;font-variant:normal;font-weight:normal;font-stretch:normal;font-size:10.58333302px;font-family:Ebrima;-inkscape-font-specification:'Ebrima, Normal';font-variant-ligatures:normal;font-variant-caps:normal;font-variant-numeric:normal;font-feature-settings:normal;text-align:end;writing-mode:lr-tb;text-anchor:end;stroke-width:0.26458332"
         id="tspan5807">technologie to health</tspan></text>
    <flowRoot
       xml:space="preserve"
       id="flowRoot5809"
       style="font-style:normal;font-variant:normal;font-weight:normal;font-stretch:normal;font-size:40px;line-height:1.25;font-family:Ebrima;-inkscape-font-specification:Ebrima;text-align:start;letter-spacing:0px;word-spacing:0px;text-anchor:start;fill:#000000;fill-opacity:1;stroke:none"
       transform="scale(0.26458333)"><flowRegion
         id="flowRegion5811"><rect
           id="rect5813"
           width="144.45181"
           height="65.659912"
           x="790.94946"
           y="253.56844" /></flowRegion><flowPara
         id="flowPara5815" /></flowRoot>    <text
       xml:space="preserve"
       style="font-style:normal;font-variant:normal;font-weight:normal;font-stretch:normal;font-size:10.58333302px;line-height:1.25;font-family:Ebrima;-inkscape-font-specification:Ebrima;text-align:start;letter-spacing:0px;word-spacing:0px;text-anchor:start;fill:#000000;fill-opacity:1;stroke:none;stroke-width:0.26458332"
       x="17.189857"
       y="131.26558"
       id="text5819"><tspan
         sodipodi:role="line"
         id="tspan5817"
         x="17.189857"
         y="131.26558"
         style="font-style:normal;font-variant:normal;font-weight:normal;font-stretch:normal;font-size:6.3499999px;font-family:Ebrima;-inkscape-font-specification:'Ebrima, Normal';font-variant-ligatures:normal;font-variant-caps:normal;font-variant-numeric:normal;font-feature-settings:normal;text-align:start;writing-mode:lr-tb;text-anchor:start;stroke-width:0.26458332">m.combes@healthium.gq</tspan></text>
    <flowRoot
       xml:space="preserve"
       id="flowRoot66"
       style="fill:black;fill-opacity:1;stroke:none;font-family:Chilanka;font-style:normal;font-weight:normal;font-size:24px;line-height:1.25;letter-spacing:0px;word-spacing:0px;-inkscape-font-specification:Chilanka;font-stretch:normal;font-variant:normal;text-anchor:start;text-align:start"><flowRegion
         id="flowRegion68"><rect
           id="rect70"
           width="271.52899"
           height="294.1564"
           x="1093.187"
           y="-101.56724" /></flowRegion><flowPara
         id="flowPara72"></flowPara></flowRoot>  </g>
  <g
     inkscape:groupmode="layer"
     id="layer7"
     inkscape:label="telephone"
     transform="translate(-0.05183806,-4.5362655)">
    <text
       xml:space="preserve"
       style="font-style:normal;font-variant:normal;font-weight:normal;font-stretch:normal;font-size:7.05555534px;line-height:1.25;font-family:Ebrima;-inkscape-font-specification:Ebrima;text-align:start;letter-spacing:0px;word-spacing:0px;text-anchor:start;display:inline;fill:#000000;fill-opacity:1;stroke:none;stroke-width:0.26458332"
       x="127.28247"
       y="132.12749"
       id="text5869"><tspan
         sodipodi:role="line"
         id="tspan5867"
         x="127.28247"
         y="132.12749"
         style="stroke-width:0.26458332">Tel: +41 76 760 9400</tspan></text>
    <g
       transform="matrix(0.01425371,0,0,0.01425371,11.871885,16.975881)"
       id="g12">
      <path
         style="fill:#51a3b9"
         d="m 1349.5,2674.3673 c -126.9598,-5.1559 -238.5208,-24.5121 -350.24079,-60.7679 C 970.76613,2604.3527 938.83444,2592.8596 916.5,2583.812 800.8968,2536.9815 697.81842,2476.2719 599.5,2397.11 523.57522,2335.9786 445.71831,2256.3078 385.86693,2178.5 241.29203,1990.5501 155.69843,1772.1876 132.06022,1531 c -6.69427,-68.3036 -7.09977,-163.2883 -1.00111,-234.5 7.96793,-93.0384 28.03824,-193.1402 56.03946,-279.5 C 208.1187,952.17091 227.9429,903.27314 257.03378,844.5 279.07747,799.96451 301.28027,760.95005 327.4673,720.7352 423.71672,572.92704 554.68504,441.48871 701.5,345.36019 852.41063,246.54999 1026.2733,180.97948 1205,155.47034 c 67.9491,-9.69818 114.8568,-12.93391 187.5,-12.93391 62.6962,0 98.7441,1.99292 154,8.51395 148.445,17.51875 295.4495,62.13838 425.5,129.15022 137.0375,70.61203 262.8311,168.69924 368.4521,287.2994 88.5488,99.43 153.8945,200.31341 210.5141,325 15.1798,33.42879 36.1049,89.18647 49.35,131.5 32.1576,102.7326 48.8893,195.5852 56.8521,315.5 1.6625,25.0374 1.6625,112.9626 0,138 -9.0228,135.8791 -30.7155,244.6162 -71.719,359.5 -18.6994,52.3922 -33.8109,88.1225 -57.5854,136.1571 -63.9496,129.206 -152.6736,248.9595 -261.2988,352.6831 -160.3681,153.1318 -348.3172,257.2855 -560.5651,310.6426 -77.5378,19.4923 -150.2347,30.6503 -235,36.0695 -23.0552,1.474 -101.1652,2.6408 -121.5,1.815 z m 104,-274.7926 c 52.2623,-5.7942 96.033,-18.3428 139.5,-39.9931 40.6998,-20.2721 69.6772,-41.1906 102.5632,-74.0398 34.4467,-34.408 55.9751,-64.5352 77.9196,-109.0418 11.3518,-23.0231 15.3085,-32.5879 22.6272,-54.6976 20.4644,-61.8234 26.5315,-114.4091 25.706,-222.8024 l -0.316,-41.5 129.5,-0.612 c 130.2876,-0.6157 138.252,-0.8379 159.2358,-4.4435 42.9643,-7.3826 75.1483,-30.3084 93.2527,-66.4273 6.3574,-12.6833 9.9252,-23.6261 12.7147,-38.9969 3.0248,-16.6673 3.0248,-53.3733 0,-70.0406 -7.8202,-43.0917 -30.2864,-74.4667 -66.2299,-92.4931 -16.3261,-8.1878 -31.7752,-12.2568 -55.2473,-14.551 -7.7752,-0.76 -71.9854,-1.0571 -208.8862,-0.9667 -127.5844,0.084 -197.8741,-0.2154 -198.2634,-0.8453 -0.3317,-0.5367 1.208,-7.1694 3.4215,-14.7393 15.0909,-51.6074 20.1388,-116.0436 12.4048,-158.348 -6.6851,-36.5675 -28.9699,-69.5213 -57.9765,-85.7334 -2.4344,-1.3607 -4.4262,-2.9061 -4.4262,-3.4344 0,-0.6114 80.594,-0.924 221.75,-0.8602 224.0125,0.1013 231.8993,-0.01 251.25,-3.5499 25.4756,-4.6603 47.9083,-15.7749 65.3965,-32.4016 13.6795,-13.0056 26.0756,-33.1384 32.0398,-52.0365 5.3217,-16.8622 6.8576,-29.1849 6.8576,-55.0203 0,-19.4996 -0.3559,-25.4611 -2.0907,-35.0203 -2.7895,-15.3708 -6.3573,-26.3136 -12.7147,-38.9969 -18.1045,-36.1191 -50.2977,-59.051 -93.2527,-66.4261 -21.241,-3.6469 -29.5562,-3.8826 -157.7358,-4.4724 l -127,-0.5843 -0.6156,-100.5 c -0.3386,-55.275 -0.898,-102.75 -1.243,-105.5 -0.3451,-2.75 -1.1093,-10.625 -1.6982,-17.5 -3.9522,-46.13854 -17.5786,-101.66134 -34.5942,-140.95905 -22.2044,-51.28103 -50.47,-93.24103 -88.3062,-131.08932 -71.6708,-71.69368 -160.1116,-109.71007 -267.5259,-114.99642 -83.3314,-4.10111 -162.3022,14.0879 -230.0169,52.97885 -29.1626,16.74914 -49.7229,32.63423 -78.3474,60.53199 C 1057.5924,583.3617 1015.2852,668.81876 1001.596,765 c -4.72282,33.1828 -4.89084,37.67676 -5.50698,147.28698 -0.51492,91.60432 -0.77773,104.91012 -2.08902,105.76542 -0.95324,0.6218 -34.30535,0.9353 -91.5,0.8602 -92.7132,-0.1218 -101.92905,0.1655 -132.5,4.131 -92.90566,12.0513 -176.53792,49.8312 -240.51179,108.6483 -42.60597,39.1716 -73.96884,83.7206 -96.66618,137.3081 -16.9687,40.0624 -26.38679,81.4907 -29.89454,131.5 -1.32805,18.9338 -0.73838,63.7067 1.05361,80 4.3621,39.6613 12.53046,74.8154 24.56949,105.7394 36.33175,93.3236 105.8488,168.6585 197.3543,213.8708 52.56771,25.9734 109.36654,40.7637 176.59511,45.9849 8.70831,0.6764 51.28206,1.425 101.5,1.7849 l 86.5,0.62 0.6215,69.5 c 0.34183,38.225 1.13228,75.8 1.75656,83.5 5.70763,70.3993 20.70994,126.296 48.77534,181.7311 20.4726,40.4376 41.4314,68.9973 75.7903,103.276 33.7937,33.7149 60.4637,53.1572 100.4309,73.2139 47.9671,24.0713 97.4702,36.9162 160.6254,41.6786 11.4414,0.8628 61.8125,-0.3629 75,-1.8249 z m -74.8573,-38.6436 c -64.5361,-3.8743 -127.7903,-26.1074 -179.9087,-63.2357 -24.1499,-17.204 -56.158,-47.1059 -76.2212,-71.2056 -43.8296,-52.6477 -72.7355,-116.5986 -84.4471,-186.829 -5.3332,-31.9811 -5.3737,-32.8991 -5.9884,-135.6608 L 1031.5,1807.5 918,1806.9195 c -96.71068,-0.4946 -115.55279,-0.825 -127.37737,-2.2334 -86.36575,-10.2866 -157.34088,-40.4724 -218.12263,-92.7676 -11.67744,-10.047 -39.07403,-37.9215 -48.57119,-49.4185 -20.89076,-25.2897 -33.14238,-44.277 -46.80631,-72.5393 -25.24549,-52.2173 -36.56067,-107.0599 -34.75702,-168.4607 0.33928,-11.55 1.32335,-27.075 2.18682,-34.5 7.3497,-63.1999 30.92888,-122.2499 68.28176,-171 20.69573,-27.0105 56.93612,-62.6077 83.66594,-82.1811 53.02442,-38.8281 115.56544,-62.8182 189,-72.4984 11.41097,-1.5042 27.42353,-1.7814 131,-2.2671 l 118,-0.5534 0.6051,-124 c 0.5784,-118.5397 0.6993,-124.77061 2.7455,-141.5 9.2442,-75.57964 33.1783,-138.30717 74.0218,-194 19.987,-27.25361 56.9727,-64.24349 85.1276,-85.13719 50.6091,-37.557 112.9238,-61.18998 176,-66.74835 36.6863,-3.23286 76.5854,-1.56829 107.5,4.48484 62.5093,12.23942 114.3329,37.11657 162.5,78.00571 10.6224,9.01736 44.2908,43.21594 53.065,53.9006 42.9964,52.35832 71.9073,118.43609 82.9093,189.49439 4.3646,28.19005 4.3705,28.37634 4.9574,158.5 l 0.5683,126 155,0.5739 c 138.5201,0.5129 155.6911,0.7467 161.5,2.1994 21.7402,5.4368 33.8502,12.5954 50.5511,29.8824 13.5634,14.0394 19.1407,23.1932 24.0959,39.5477 2.3971,7.9114 2.7103,10.7778 3.1124,28.484 0.5014,22.0762 -0.5865,30.2425 -5.845,43.8783 -4.0818,10.5845 -9.1796,18.6029 -17.8432,28.066 -15.9026,17.37 -29.8596,26.648 -48.0712,31.9553 l -7.5,2.1857 -291,-0.2061 c -318.4464,-0.2255 -298.7029,-0.5565 -324,5.432 -23.3161,5.5195 -47.9232,16.3511 -69,30.3726 -21.7682,14.4813 -31.7666,24.3442 -45.6521,45.0333 -20.0903,29.9339 -28.8399,57.8744 -28.8399,92.0955 0,27.6175 4.8526,47.8751 17.4721,72.9389 7.6974,15.2877 23.4927,37.4399 32.059,44.9613 4.2225,3.7074 4.0477,3.7711 14.6427,-5.3322 18.0398,-15.4999 37.6902,-46.0113 46.3283,-71.9343 4.9916,-14.9799 7.3151,-28.0981 8.4408,-47.6556 1.2233,-21.2518 3.3661,-30.6539 10.2509,-44.9781 4.8705,-10.1332 5.5752,-11.0262 20.1725,-25.5638 12.9108,-12.8579 16.2972,-15.6618 23.1257,-19.1475 17.1139,-8.736 33.7332,-11.9514 56.5,-10.9313 31.7846,1.4242 51.9645,11.5283 74.4961,37.3005 11.7524,13.4427 17.6245,25.7098 21.0767,44.0301 1.3714,7.2781 1.5699,13.0767 1.1402,33.312 -0.6635,31.2414 -3.4635,53.0203 -10.3497,80.5 -5.8701,23.4253 -18.2586,56.3778 -27.9106,74.2405 -2.449,4.5323 -4.4527,8.9753 -4.4527,9.8734 0,1.507 18.3038,1.6064 237.25,1.2889 l 237.25,-0.3441 7.895,2.2574 c 9.3465,2.6723 20.6616,7.7507 27.0261,12.1296 7.1682,4.9318 22.0041,19.5258 28.1476,27.6887 6.422,8.5329 11.3658,18.6505 14.6446,29.9706 2.0939,7.2294 2.2834,9.8341 2.2475,30.895 -0.038,22.1498 -0.1398,23.3252 -2.7591,31.7966 -5.1006,16.4959 -10.6333,25.556 -24.1506,39.5477 -16.7005,17.2866 -28.8053,24.4423 -50.5511,29.8832 -5.8141,1.4547 -23.1723,1.6868 -164.5,2.1994 l -158,0.5731 0.05,6 c 0.028,3.3 0.6344,10.9686 1.3482,17.0413 2.0095,17.0957 0.982,151.6039 -1.3097,171.4587 -9.534,82.6001 -36.0413,148.9691 -83.473,209 -8.2446,10.4345 -45.463,48.6154 -55.984,57.4316 -20.4416,17.1295 -40.1908,30.7488 -60.7816,41.9158 -59.8816,32.4755 -125.1269,46.0611 -199.7076,41.5837 z m 56.3277,-210.9347 c 37.0137,-7.8062 75.9718,-32.3539 95.9422,-60.4537 17.3745,-24.4471 28.7238,-48.9417 35.0019,-75.5427 5.4279,-22.9986 5.25,-19.7259 6.032,-111 0.4029,-47.025 0.5531,-85.8375 0.334,-86.25 -0.2192,-0.4125 -13.9002,-0.75 -30.4021,-0.75 -34.3202,0 -52.057,-1.0596 -76.8784,-4.5928 -22.4542,-3.1963 -40.1691,-7.0727 -61.8177,-13.527 l -17.3176,-5.1631 -15.6824,3.6081 c -35.6313,8.1978 -68.3968,11.6298 -111.3253,11.6607 -16.9809,0.012 -19.7253,0.2285 -20.25,1.5959 -1.0635,2.7714 -0.6525,9.9727 0.643,11.2674 0.9711,0.9705 1.3754,20.0347 1.8121,85.45 l 0.5621,84.2008 3.2337,15 c 7.1994,33.3949 19.3137,60.4442 38.8091,86.654 8.3726,11.2563 16.0448,19.0669 25.8734,26.3403 23.8888,17.6781 47.0479,27.9577 73.4596,32.6063 14.261,2.5099 37.1383,2.0239 51.9704,-1.1042 z m -41.7114,-39.0984 c -22.7474,-2.6467 -51.4167,-19.3867 -70.8528,-41.3711 -23.6488,-26.7493 -37.1026,-57.9337 -40.3501,-93.5269 -0.588,-6.4442 -1.0508,-37.0739 -1.0527,-69.6704 v -58.1704 l 6.25,-0.5508 c 3.4375,-0.303 10.975,-0.8153 16.75,-1.1385 15.339,-0.8586 34.3727,-3.1209 52,-6.1806 22.3606,-3.8814 32.2471,-3.6759 51.7598,1.0758 31.1785,7.5926 65.2362,11.9835 103.0799,13.2896 14.6098,0.5042 19.6845,1.0124 20.75,2.0778 1.1752,1.1753 1.4103,9.5424 1.4103,50.1937 0,26.8309 -0.4676,54.5423 -1.0392,61.5809 -2.6111,32.155 -11.2656,57.9855 -27.9745,83.4929 -8.1789,12.4857 -28.1897,32.63 -40.0756,40.3428 -24.9319,16.1786 -45.2396,21.512 -70.6517,18.5552 z M 1166,1599.0981 c 0,-0.496 -1.9752,-5.5585 -4.3893,-11.25 -20.0857,-47.3541 -29.5798,-95.771 -29.5798,-150.8481 0,-56.8907 10.5093,-108.4446 31.6986,-155.5 2.972,-6.6 5.6236,-12.5018 5.8923,-13.1151 0.3585,-0.8181 -46.6092,-1.0794 -176.31658,-0.9811 -195.9841,0.1485 -179.60194,-0.3797 -207.76455,6.6986 -14.14852,3.5561 -25.62536,7.96 -41.75662,16.0229 -27.1907,13.5907 -46.37163,28.7956 -59.81219,47.4137 -22.91562,31.743 -33.29053,61.5814 -33.19217,95.461 0.072,24.7976 5.03139,44.0738 17.64501,68.5825 19.01577,36.9485 39.82605,56.6465 80.69941,76.3863 19.41339,9.3757 38.84391,15.131 64.87589,19.2161 5.33455,0.8371 46.91122,1.3476 144,1.768 75.075,0.325 152.5875,0.6936 172.25,0.819 20.7415,0.1324 35.75,-0.1505 35.75,-0.6738 z m -299,-41.1353 c -44.60439,-0.6807 -50.27272,-1.1902 -68,-6.1127 -15.16467,-4.2109 -32.61429,-12.238 -46.5,-21.3906 -22.34191,-14.7265 -39.2073,-34.0292 -50.6355,-57.9532 -7.49286,-15.6856 -9.19519,-23.1993 -9.17725,-40.5063 0.0133,-12.8656 0.32081,-15.5144 2.72784,-23.5 6.93387,-23.0038 22.50053,-46.1448 41.99053,-62.4219 11.16995,-9.3286 18.07913,-13.8023 32.41267,-20.9873 21.83857,-10.9469 38.30972,-15.2512 65.3303,-17.0725 18.73075,-1.2625 270.75651,-1.313 272.79261,-0.055 1.1616,0.718 0.7883,3.3544 -2.2231,15.6996 -9.6787,39.6775 -13.1671,69.8051 -13.123,113.3368 0.04,39.3515 2.699,65.7564 10.0707,100 1.9536,9.075 3.7791,17.7375 4.0566,19.25 l 0.5046,2.75 -98.8635,-0.1944 C 953.98857,1558.6987 890.375,1558.3195 867,1557.9628 Z M 1253.8226,1160.75 c 53.1307,-50.6713 127.5335,-85.7374 207.1774,-97.6426 24.9859,-3.735 34.3486,-4.3615 74.5,-4.9856 l 40,-0.6218 0.2856,-102 c 0.1657,-59.20423 -0.1342,-109.76198 -0.7149,-120.5 -2.1848,-40.3992 -13.1036,-75.06159 -33.8026,-107.30792 -13.816,-21.52356 -23.9743,-32.00512 -43.7395,-45.13156 -20.0994,-13.34832 -40.6167,-21.92747 -62.5286,-26.14582 -14.1245,-2.71917 -38.0735,-2.48733 -52,0.50338 -24.5608,5.27442 -45.284,14.6032 -67.1418,30.22466 -21.0902,15.07288 -35.4625,33.40764 -50.4485,64.35726 -11.4429,23.63228 -18.0196,47.12952 -20.2921,72.5 -1.147,12.80471 -2.7378,346 -1.6519,346 0.3618,0 5.0224,-4.1625 10.3569,-9.25 z m 29.8441,-79.4167 c -1.0888,-1.0887 -0.7569,-226.33818 0.3562,-241.77737 1.1406,-15.82045 4.707,-34.86359 8.5599,-45.70663 5.8999,-16.60369 17.5866,-37.82532 27.7273,-50.3493 14.065,-17.37071 32.4077,-31.33427 53.0575,-40.39054 22.1354,-9.70784 45.7619,-10.71268 66.6455,-2.83446 34.1924,12.89891 60.688,37.95551 78.4878,74.225 9.2675,18.88398 14.1847,36.53769 16.4122,58.92368 1.3827,13.89634 1.4823,181.40172 0.1091,183.57632 -0.7174,1.136 -3.3224,1.5601 -10.7347,1.7475 -19.8827,0.5027 -48.2231,2.425 -63.2875,4.2927 -58.5908,7.2641 -116.9337,25.9497 -163.2433,52.2823 -11.9161,6.7757 -12.9038,7.1971 -14.09,6.0108 z m 110.4518,404.0902 c -3.1101,-3.9539 -9.7626,-22.0356 -11.1931,-30.4235 -0.7035,-4.125 -1.2791,-12.225 -1.2791,-18 0,-13.8583 1.7213,-23.341 6.453,-35.5486 9.7279,-25.0977 29.561,-50.3292 51.3584,-65.3377 9.9764,-6.8693 18.269,-11.3649 18.9452,-10.2708 0.3178,0.5143 -2.0958,4.1273 -5.3636,8.0289 -12.0584,14.3972 -18.7607,26.2456 -23.8306,42.1282 -4.1663,13.0519 -5.7395,21.3874 -8.2102,43.5 -3.2852,29.4018 -6.4178,41.3059 -15.1314,57.5 -6.3405,11.7837 -8.1084,13.0513 -11.7486,8.4235 z"
         id="path18"
         inkscape:connector-curvature="0" />
      <path
         style="fill:#18427d"
         d="m 1344,2672.9319 c -82.3425,-3.5963 -151.6954,-12.3479 -228.5,-28.8344 -22.2179,-4.7691 -74.8055,-18.4872 -95,-24.7817 -71.62094,-22.324 -124.72738,-43.2049 -185,-72.7402 C 619.18503,2440.5755 433.34604,2270.0013 307.01457,2061.5 232.71087,1938.8669 181.07951,1805.219 152.59856,1661.7936 137.25253,1584.5134 130.16271,1520.3932 128.13001,1440.5 c -2.67236,-105.0342 6.5284,-203.0277 28.86521,-307.4314 C 177.8447,1035.6167 212.57339,936.43702 258.04017,844.5 281.16174,797.74655 304.80768,756.79346 333.96705,713 386.11406,634.6822 432.26849,578.47057 499.41534,511.5 552.56855,458.48634 591.46375,425.1831 652.5,380.42432 708.11345,339.64217 785.16078,293.58701 844.07571,265.90965 996.16442,194.46063 1148.2584,155.54739 1315.3725,145.32837 c 52.214,-3.19289 148.5554,-1.84797 192.1275,2.68208 39.6156,4.1187 50.1932,5.33089 66,7.56356 125.7412,17.7606 245.1711,53.30291 362.5,107.8799 83.5251,38.8527 180.669,100.57306 256.5,162.96712 82.2177,67.6491 156.0424,145.0062 218.1413,228.57897 106.3758,143.16089 177.2078,298.234 216.7349,474.5 16.095,71.7737 26.2187,151.4275 29.6132,233 2.7634,66.4053 -0.9459,142.5543 -10.5159,215.8809 -18.0019,137.9337 -58.1282,270.3801 -119.5899,394.7353 -49.5565,100.2673 -118.9683,201.291 -197.7848,287.861 -29.449,32.3459 -86.9975,87.7507 -121.0988,116.5877 -80.2369,67.8506 -177.9773,131.3667 -266.5,173.1838 -108.2505,51.1363 -213.1108,84.28 -331.5,104.7789 -83.2983,14.423 -183.7593,20.9961 -266,17.4043 z m 111.5,-128.0183 c 82.7561,-4.6222 162.9047,-17.8856 242,-40.0474 37.1314,-10.4039 88.4364,-28.2018 124.5,-43.1894 31.4716,-13.0793 36.177,-15.2178 69.5,-31.5871 55.2554,-27.143 94.886,-50.2384 145.5,-84.7927 112.1176,-76.5429 212.0072,-175.9663 289.649,-288.297 6.5059,-9.4126 27.5626,-41.7858 37.4001,-57.5 17.4417,-27.8608 47.7935,-85.3238 64.5757,-122.2565 15.1455,-33.3309 30.207,-71.1635 42.6948,-107.2435 2.0533,-5.9326 11.6458,-36.7301 15.5734,-50 20.8522,-70.4509 37.1965,-164.2592 41.0314,-235.5 0.5329,-9.9 1.505,-27.7106 2.1602,-39.5792 3.0911,-55.9919 -3.1657,-154.4291 -13.7242,-215.9208 -6.7617,-39.3794 -14.8253,-78.4541 -19.8109,-96 -1.3283,-4.675 -3.1378,-11.65 -4.0209,-15.5 -3.9118,-17.0534 -22.7672,-76.3252 -32.1298,-101 -23.7202,-62.51344 -53.8013,-126.42951 -82.3609,-175 -2.9107,-4.95 -7.1049,-12.15 -9.3205,-16 -16.692,-29.00522 -50.4311,-78.78952 -75.988,-112.12553 C 2240.376,645.08549 2173.5547,576.93978 2105,521.92413 c -34.4374,-27.63623 -78.4575,-58.70716 -113.0498,-79.79452 -5.7476,-3.50371 -12.0252,-7.36575 -13.9502,-8.58231 -28.3639,-17.92542 -98.3962,-54.02106 -135.3247,-69.74828 -51.804,-22.06241 -92.9664,-36.76767 -143.1753,-51.1493 -67.3873,-19.30216 -143.0192,-33.09206 -209,-38.10682 -11,-0.83603 -26.75,-2.0877 -35,-2.78148 -19.8923,-1.67283 -106.9773,-1.68548 -126,-0.0183 -7.7,0.67484 -20.75,1.70996 -29,2.30026 -28.9733,2.07308 -64.4891,6.45119 -96.5,11.89576 -75.1278,12.77811 -136.877,29.78271 -220.04599,60.59665 -3.42112,1.26752 -34.54539,14.30229 -49.95401,20.92062 -22.64463,9.72636 -63.75848,30.42573 -96,48.33261 -68.03394,37.78592 -139.30233,87.92299 -193.5,136.12658 -6.6,5.87007 -13.35,11.69301 -15,12.93987 -5.56154,4.20271 -49.06102,46.86462 -64.09183,62.85776 -14.79406,15.74123 -45.83063,51.35219 -56.46461,64.78676 -3.04742,3.85 -8.91866,11.275 -13.04721,16.5 -26.82999,33.95547 -61.16613,85.01764 -87.41694,130 -25.96387,44.49065 -55.70624,105.95268 -74.76481,154.5 -1.94326,4.95 -4.73029,12.03851 -6.1934,15.75221 -9.06919,23.0196 -27.69565,80.4648 -35.90971,110.7478 -12.62267,46.5363 -26.18953,119.0824 -30.57619,163.5 -1.08635,11 -2.45165,24.275 -3.03399,29.5 -4.58574,41.1454 -5.086,134.6189 -0.966,180.5 4.03197,44.9008 5.61837,58.3927 10.58234,89.9998 6.59391,41.9855 18.16339,94.6927 28.97466,132.0002 2.55014,8.8 5.46433,18.925 6.47599,22.5 4.27369,15.1023 15.14744,46.5756 25.73913,74.5 18.33062,48.3276 41.12146,96.8199 71.07629,151.2295 62.14714,112.8834 151.41908,222.7472 247.55232,304.6538 27.49522,23.4262 29.20996,24.8396 44.56396,36.7316 61.70023,47.7879 122.86659,86.1239 194.21154,121.7221 62.95943,31.4142 98.7473,45.9743 168.78846,68.671 10.6711,3.458 53.1072,15.4893 54.6381,15.4909 0.626,6e-4 5.126,1.1684 10,2.5951 8.3773,2.4521 17.265,4.4462 51.3619,11.524 37.7088,7.8274 82.6322,14.2893 128.5,18.4836 34.8227,3.1843 111.0063,3.825 156,1.312 z m -78.8573,-185.9825 c -65.5809,-3.937 -128.3449,-26.6838 -181.6427,-65.8305 -22.0703,-16.2103 -52.3658,-44.8435 -70.5212,-66.6517 -49.8958,-59.9344 -77.5419,-126.0476 -88.1764,-210.8662 -1.3775,-10.9869 -1.7334,-28.7289 -2.2214,-110.7501 -0.3195,-53.7171 -0.9557,-98.0421 -1.4137,-98.5 -0.4579,-0.4579 -52.43293,-1.0953 -115.49997,-1.4163 -97.85079,-0.4982 -116.71108,-0.8266 -128.60308,-2.2396 -76.62248,-9.1039 -142.89083,-35.207 -198.03262,-78.005 -28.03683,-21.7606 -57.65233,-51.7927 -78.14591,-79.2452 -34.5163,-46.2368 -56.56268,-99.7774 -64.82343,-157.4265 -4.02714,-28.1041 -4.47869,-73.544 -1.02356,-103 8.33519,-71.0598 36.3854,-133.8076 84.04174,-188 11.52986,-13.1112 33.75465,-34.9543 46.91953,-46.1139 56.53386,-47.9224 124.59526,-76.8526 206,-87.5622 11.40627,-1.5007 27.60921,-1.7786 132.16717,-2.2671 65.54195,-0.3062 119.54193,-0.9315 120.00003,-1.3894 0.458,-0.458 1.1048,-57.158 1.4372,-126.00002 0.5783,-119.75205 0.6971,-125.92451 2.7456,-142.66738 6.988,-57.11632 22.6506,-107.01105 47.3549,-150.85337 17.9339,-31.82709 35.5598,-54.92833 63.7005,-83.48869 44.5255,-45.18945 87.3051,-72.57128 142.2715,-91.06329 49.3578,-16.60511 101.4788,-21.82815 159.9854,-16.03211 62.8121,6.2226 120.7118,28.88857 170.8377,66.87778 17.1704,13.01304 26.5206,21.38082 45.5,40.7192 22.1074,22.52554 31.1426,33.42218 47.1305,56.84048 29.9552,43.87668 51.513,99.96498 60.3438,157 4.3574,28.14318 4.3642,28.3627 4.9542,159.66717 0.3143,69.94193 0.9463,127.54193 1.4045,128.00003 0.4581,0.458 71.1081,1.0831 157,1.3891 169.5856,0.604 157.6871,0.2006 174.1058,5.9032 12.4353,4.3191 23.8494,12.3398 36.6963,25.7865 12.0552,12.618 17.6179,21.6115 22.4242,36.254 2.6192,7.9793 2.8161,9.8028 3.2151,29.7668 0.4748,23.7561 -0.2252,29.8471 -4.9213,42.8255 -4.2454,11.7328 -11.3572,22.1273 -23.2417,33.97 -14.4604,14.4094 -23.2432,19.986 -40.1547,25.4964 l -6.9567,2.2667 -291,-0.2345 c -320.9531,-0.2587 -298.5326,-0.6642 -326,5.8965 -16.8738,4.0304 -27.7172,8.011 -45,16.5196 -40.5686,19.9726 -64.1909,42.7431 -82.4309,79.4585 -6.8821,13.853 -9.19,19.6723 -12.5065,31.5345 -3.8255,13.6828 -5.5546,26.6011 -5.5546,41.5 0,19.2271 3.5339,38.6674 10.1797,56 4.0072,10.451 15.8779,32.5314 22.3109,41.5 9.1593,12.7693 20.1028,24.5 22.8561,24.5 3.102,0 18.8264,-13.9455 26.6235,-23.6118 9.5495,-11.8387 16.3042,-22.6933 24.0036,-38.5729 10.8303,-22.337 15.3478,-40.6632 16.9686,-68.8372 1.4353,-24.9489 5.3517,-38.2487 15.408,-52.3244 5.9386,-8.3122 26.8695,-28.3393 34.0807,-32.609 8.3586,-4.9492 23.1912,-9.8343 33.8646,-11.1534 11.346,-1.4021 37.873,-0.5375 46.1963,1.5058 16.9699,4.1658 29.8666,11.9325 45.0242,27.1143 12.2524,12.2721 18.6572,21.6904 22.9724,33.7815 5.1286,14.3698 5.8305,21.1304 5.2326,50.401 -0.649,31.7769 -3.4091,54.1025 -9.8664,79.8061 -5.6109,22.3344 -18.5835,56.7407 -27.9478,74.1238 -2.7033,5.018 -4.915,9.847 -4.915,10.7309 0,0.899 1.1517,1.8963 2.6136,2.2632 1.4375,0.3607 107.3,0.4353 235.25,0.1657 127.95,-0.2696 235.5857,-0.1296 239.1903,0.3111 9.3029,1.1373 22.7346,6.2819 31.7265,12.1519 9.8266,6.4149 26.3814,22.9944 32.9433,32.9926 5.6053,8.5406 10.5857,21.1311 12.3371,31.1888 0.7162,4.1126 0.981,14.4284 0.7136,27.8052 -0.399,19.964 -0.5959,21.7875 -3.2151,29.7668 -4.8063,14.6425 -10.369,23.636 -22.4242,36.254 -19.1794,20.0748 -36.3042,28.7729 -60.6351,30.7979 -6.05,0.5036 -78.5265,0.9229 -161.0589,0.9318 -124.2791,0.014 -150.3756,0.2479 -151.9026,1.3645 -2.0005,1.4628 -1.9934,1.78 0.5023,22.6518 0.7942,6.6418 0.9995,32.2148 0.6826,85 -0.4696,78.2085 -0.8272,85.8612 -5.3275,114 -7.5068,46.9373 -24.2641,95.2621 -46.1517,133.0928 -10.5767,18.2807 -20.6166,32.8524 -36.1087,52.4072 -6.7583,8.5307 -37.4225,39.9017 -49.2395,50.3746 -40.9,36.2479 -88.4078,61.6866 -141.0109,75.5063 -37.5335,9.8607 -78.2025,13.3141 -124.2424,10.5502 z m 44.3835,-204.9567 c 25.8533,-3.129 50.8692,-12.9457 76.2657,-29.928 36.0104,-24.0796 64.3098,-72.3286 73.6366,-125.5464 2.4918,-14.2183 2.959,-29.2667 3.2226,-103.8082 0.2416,-68.3326 0.084,-78.9313 -1.1862,-79.7347 -0.816,-0.5161 -15.196,-0.9351 -32.4649,-0.9459 -17.05,-0.011 -37.3,-0.4755 -45,-1.0331 -31.5321,-2.2833 -63.9432,-8.2151 -93.3587,-17.0863 l -16.4036,-4.947 -15.1189,3.4952 c -36.2025,8.3692 -66.3813,11.5155 -110.7464,11.5459 -16.5228,0.011 -20.8605,0.2948 -21.7983,1.4249 -2.0902,2.5185 -2.4279,8.3711 -0.7413,12.8484 1.4041,3.7273 1.6428,14.1695 1.9708,86.2408 0.4044,88.8656 0.1166,83.7963 6.2005,109.228 7.8805,32.9423 28.9997,71.9362 50.4586,93.1656 21.4914,21.2614 58.4706,39.6771 88.5373,44.0916 4.4,0.6461 8.675,1.3115 9.5,1.4787 3.6165,0.7331 19.2664,0.4497 27.0262,-0.4895 z m -253.4583,-553.2908 c 0.2778,-0.724 -1.4865,-6.0115 -3.9206,-11.75 -20.4816,-48.2846 -29.6164,-95.1464 -29.6164,-151.9336 0,-58.5377 10.2006,-108.872 31.7157,-156.5 2.9815,-6.6 5.4957,-12.675 5.5871,-13.5 0.1473,-1.3283 -19.9265,-1.5 -175.3337,-1.5 -194.84355,0 -181.09783,-0.4356 -209.5,6.6395 -14.54113,3.6222 -25.52111,7.8945 -44,17.1204 -39.5114,19.7267 -60.00205,40.3926 -78.56811,79.2401 -14.58731,30.5224 -18.53569,59.5807 -12.41701,91.3839 2.57532,13.3859 7.07518,25.4639 15.87729,42.6161 19.4107,37.8246 37.95448,55.4913 79.78202,76.0087 21.85262,10.7192 39.80195,16.2428 65.82581,20.2567 9.14182,1.41 28.15635,1.6944 147,2.199 75.075,0.3187 152.3766,0.6821 171.7814,0.8075 28.4129,0.1837 35.3797,-0.028 35.7865,-1.0883 z m 85.3109,-437.0155 c 19.7414,-19.079 44.3535,-37.2388 71.892,-53.0449 47.2879,-27.1415 109.2791,-45.1516 170.7292,-49.6013 7.7,-0.5576 28.7054,-1.0156 46.6786,-1.0178 28.3708,0 32.8857,-0.2112 34.25,-1.5755 1.4086,-1.4086 1.5687,-12.2622 1.5453,-104.75003 -0.026,-104.03494 -0.5668,-125.90527 -3.5473,-143.53071 -6.013,-35.55792 -20.3698,-69.10626 -41.66,-97.34896 -29.0788,-38.57479 -88.899,-65.13163 -134.8251,-59.85481 -29.5519,3.39546 -58.0596,14.75745 -83.8133,33.40447 -20.6253,14.93384 -34.1824,32.35457 -49.5344,63.65144 -12.4829,25.44763 -19.0939,48.82699 -21.4908,76 -1.124,12.74297 -2.682,343.2542 -1.6261,344.9627 1.237,2.0015 2.8523,0.968 11.4019,-7.2946 z"
         id="path16"
         inkscape:connector-curvature="0" />
      <path
         style="fill:#100043"
         d="m 1351,2672.3807 c -116.2903,-4.8925 -215.194,-20.6389 -319.5,-50.8673 -110.85696,-32.1268 -224.11681,-83.9759 -323,-147.8657 C 579.4991,2390.2985 458.23856,2275.3915 366.95694,2150 237.21044,1971.7702 157.25805,1761.1083 135.06445,1539 124.0549,1428.819 127.40238,1310.8049 144.54562,1204.7453 160.1377,1108.2822 185.41626,1017.4299 221.5678,927.92396 242.44474,876.2357 275.09422,810.64523 304.16106,762 363.32644,662.98295 433.51727,575.55877 521.5,491.2997 596.30799,419.65778 678.58206,358.08235 766,308.31138 c 70.46258,-40.11752 134.4303,-68.9434 213,-95.98454 29.0313,-9.99165 34.6687,-11.74603 69,-21.47318 85.4727,-24.21714 176.6966,-39.26504 273,-45.03288 27.5911,-1.65249 115.7702,-1.66111 143,-0.014 100.0004,6.04905 187.7495,20.76047 279.3736,46.83787 199.212,56.69826 374.8638,158.14923 525.0366,303.24461 66.6224,64.3698 120.854,128.03872 170.0232,199.61026 7.5568,10.99974 17.1271,25.39974 21.2675,32 4.1403,6.60025 9.653,15.37546 12.2503,19.50046 24.4228,38.78735 52.2337,91.72483 78.015,148.5 14,30.83054 36.6857,91.51364 48.4121,129.50002 32.9441,106.7189 48.7752,194.6719 56.7883,315.5 1.6559,24.9681 1.6559,111.0319 0,136 -8.0689,121.6698 -25.0048,214.9426 -57.831,318.5 -34.9035,110.1106 -82.5516,210.3759 -146.1301,307.5 -81.6891,124.7903 -199.9813,247.8241 -323.2055,336.1608 -129.2938,92.6878 -268.4832,157.0287 -424.5,196.227 -76.3269,19.1767 -148.939,30.2663 -233.5,35.6613 -22.8759,1.4594 -99.7294,2.6423 -119,1.8316 z m 101.5,-125.478 c 127.7164,-6.8176 254.2872,-35.5135 371.5,-84.2259 31.338,-13.0238 36.1279,-15.1976 68.5,-31.0888 84.5206,-41.4902 149.9712,-83.8134 230.5,-149.0513 17.4893,-14.1684 41.2854,-35.8365 65.3838,-59.5367 42.4531,-41.7516 66.9483,-69.0883 102.1393,-113.9876 4.9628,-6.3318 10.794,-13.9874 12.9583,-17.0124 2.1643,-3.025 7.0955,-9.775 10.9582,-15 12.4157,-16.7946 32.2858,-46.6328 51.6095,-77.5 22.4794,-35.908 57.7606,-104.7027 75.1322,-146.5 18.2,-43.7905 25.1357,-62.496 37.4494,-101 12.9221,-40.4064 19.8696,-65.9331 27.7609,-102 11.9902,-54.8003 21.0359,-120.1963 23.6062,-170.66 0.5838,-11.462 1.4981,-27.4867 2.0318,-35.6104 1.2439,-18.9339 1.2405,-49.7498 -0.01,-70.2028 -0.538,-8.8148 -1.4442,-25.0268 -2.0138,-36.0268 -1.0197,-19.6908 -1.3961,-24.1738 -4.5343,-54 -4.7164,-44.8262 -17.7578,-117.2402 -26.9243,-149.5 -1.3283,-4.675 -3.1378,-11.65 -4.0209,-15.5 -4.4283,-19.305 -21.3783,-72.4649 -33.4793,-105 -20.6616,-55.55188 -53.3376,-124.92737 -81.0123,-172 -2.9101,-4.95 -7.104,-12.15 -9.3196,-16 -9.2785,-16.12299 -28.674,-46.06092 -46.3218,-71.5 -55.0529,-79.358 -122.4548,-153.30325 -195.9676,-214.99198 -43.17,-36.22637 -93.4024,-72.61981 -136.4778,-98.87841 -5.7476,-3.50371 -12.0252,-7.36575 -13.9502,-8.58231 -27.9536,-17.6661 -97.6761,-53.63521 -132.7965,-68.50835 -3.6869,-1.56137 -11.6535,-4.93865 -17.7035,-7.50508 -71.8295,-30.4703 -165.6364,-57.89194 -241.5,-70.59535 -33.5973,-5.62589 -77.1603,-11.07242 -103,-12.87773 -8.525,-0.59561 -21.8,-1.6301 -29.5,-2.29887 -18.7403,-1.62767 -103.406,-1.63744 -122,-0.0141 -7.7,0.67225 -20.75,1.70883 -29,2.30352 -38.9407,2.80696 -96.2061,10.79083 -133,18.54269 -6.6,1.39051 -16.275,3.41456 -21.5,4.4979 -28.2305,5.85323 -89.778,23.02964 -116.4505,32.49848 -37.27,13.23104 -53.17817,19.24275 -72.5495,27.41652 -31.60111,13.33415 -33.48428,14.17654 -57,25.49753 -61.92496,29.81205 -116.82777,62.36186 -173.5,102.86165 -21.14751,15.11268 -28.58356,20.74176 -51.5,38.98547 -47.04973,37.45614 -96.3338,84.76538 -140.1233,134.50851 -9.85779,11.19806 -19.40726,22.22306 -21.22105,24.5 C 467.24844,742.12822 438.59053,783.65067 404.7854,842 c -26.24002,45.29159 -54.36245,103.87629 -73.20461,152.5 -2.55757,6.6 -5.14395,13.125 -5.74752,14.5 -2.81834,6.4205 -20.88659,59.3604 -24.57342,72 -13.66586,46.8509 -17.8883,63.9633 -26.64862,108 -9.73107,48.9165 -13.15957,73.4343 -18.59833,133 -4.10518,44.9604 -3.59827,140.4251 0.97969,184.5 0.57127,5.5 1.94668,18.775 3.05647,29.5 5.05752,48.8758 17.18563,113.1381 31.04582,164.5 25.21843,93.4523 57.4231,172.5098 106.93561,262.5105 46.80199,85.0736 108.7914,168.475 180.46951,242.806 19.00014,19.7034 58.56802,55.9103 87,79.6101 50.75958,42.3112 113.10334,84.707 176.21154,119.8297 17.46369,9.7194 64.50373,33.341 87.28846,43.8329 19.19644,8.8395 61.47706,25.8874 81.5,32.8615 8.25,2.8735 18.6,6.4864 23,8.0285 17.4369,6.1115 70.9875,22.0165 74.1381,22.0197 0.626,6e-4 5.126,1.1684 10,2.5951 8.5044,2.4893 17.1413,4.4139 53.3619,11.8909 59.6627,12.3161 127.7489,19.9028 196.5,21.8955 16.6246,0.4818 63.5847,-0.3346 85,-1.4777 z"
         id="path14"
         inkscape:connector-curvature="0" />
    </g>
  </g>
  <g
     inkscape:groupmode="layer"
     id="layer8"
     inkscape:label="addresse"
     transform="translate(-0.05183806,-4.5362655)">
    <text
       xml:space="preserve"
       style="font-style:normal;font-variant:normal;font-weight:normal;font-stretch:normal;font-size:7.05555534px;line-height:1.25;font-family:Ebrima;-inkscape-font-specification:Ebrima;text-align:start;letter-spacing:0px;word-spacing:0px;text-anchor:start;display:inline;fill:#000000;fill-opacity:1;stroke:none;stroke-width:0.26458332"
       x="16.117857"
       y="106.13769"
       id="text5863"><tspan
         sodipodi:role="line"
         id="tspan5861"
         x="16.117857"
         y="106.13769"
         style="stroke-width:0.26458332">1024 Ecublens,</tspan><tspan
         sodipodi:role="line"
         x="16.117857"
         y="114.95713"
         style="stroke-width:0.26458332"
         id="tspan5865">Ch. de la Chiesaz, 8</tspan></text>
  </g>
  <g
     inkscape:groupmode="layer"
     id="layer10"
     inkscape:label="website"
     transform="translate(-0.05183806,-4.5362655)">
    <text
       xml:space="preserve"
       style="font-style:normal;font-variant:normal;font-weight:normal;font-stretch:normal;font-size:10.58333302px;line-height:1.25;font-family:Ebrima;-inkscape-font-specification:Ebrima;text-align:start;letter-spacing:0px;word-spacing:0px;text-anchor:start;display:inline;fill:#000000;fill-opacity:1;stroke:none;stroke-width:0.26458332"
       x="16.245035"
       y="123.25819"
       id="text5833"><tspan
         sodipodi:role="line"
         id="tspan5831"
         x="16.245035"
         y="123.25819"
         style="font-style:normal;font-variant:normal;font-weight:normal;font-stretch:normal;font-size:7.05555534px;font-family:Ebrima;-inkscape-font-specification:'Ebrima, Normal';font-variant-ligatures:normal;font-variant-caps:normal;font-variant-numeric:normal;font-feature-settings:normal;text-align:start;writing-mode:lr-tb;text-anchor:start;stroke-width:0.26458332">www.healthium.gq</tspan></text>
  </g>
  <g
     inkscape:groupmode="layer"
     id="layer9"
     inkscape:label="logo"
     style="display:inline"
     transform="translate(-0.05183806,-4.5362655)" />
</svg>
