<?xml version="1.0" encoding="UTF-8" standalone="no"?>
<!-- Created with Inkscape (http://www.inkscape.org/) -->

<svg
   xmlns:dc="http://purl.org/dc/elements/1.1/"
   xmlns:cc="http://creativecommons.org/ns#"
   xmlns:rdf="http://www.w3.org/1999/02/22-rdf-syntax-ns#"
   xmlns:svg="http://www.w3.org/2000/svg"
   xmlns="http://www.w3.org/2000/svg"
   xmlns:sodipodi="http://sodipodi.sourceforge.net/DTD/sodipodi-0.dtd"
   xmlns:inkscape="http://www.inkscape.org/namespaces/inkscape"
   version="1.1"
   id="svg2"
   width="140.69098"
   height="188.7755"
   viewBox="0 0 140.69098 188.77549"
   sodipodi:docname="airdrop.svg"
   inkscape:version="0.92.3 (2405546, 2018-03-11)">
  <metadata
     id="metadata8">
    <rdf:RDF>
      <cc:Work
         rdf:about="">
        <dc:format>image/svg+xml</dc:format>
        <dc:type
           rdf:resource="http://purl.org/dc/dcmitype/StillImage" />
        <dc:title></dc:title>
      </cc:Work>
    </rdf:RDF>
  </metadata>
  <defs
     id="defs6" />
  <sodipodi:namedview
     pagecolor="#ffffff"
     bordercolor="#666666"
     borderopacity="1"
     objecttolerance="10"
     gridtolerance="10"
     guidetolerance="10"
     inkscape:pageopacity="0"
     inkscape:pageshadow="2"
     inkscape:window-width="1765"
     inkscape:window-height="1014"
     id="namedview4"
     showgrid="false"
     fit-margin-top="0"
     fit-margin-left="0"
     fit-margin-right="0"
     fit-margin-bottom="0"
     inkscape:lockguides="false"
     inkscape:zoom="3.4766083"
     inkscape:cx="39.442356"
     inkscape:cy="86.915318"
     inkscape:window-x="67"
     inkscape:window-y="27"
     inkscape:window-maximized="0"
     inkscape:current-layer="svg2" />
  <g
     id="g817"
     transform="matrix(-0.97437006,-0.22495105,-0.22495105,0.97437006,182.27175,23.085747)">
    <path
       style="fill:#fee656"
       d="M 63.5,63.033866 C 56.35,60.348844 46.45,56.408558 41.5,54.277675 31.147373,49.821062 30.300317,48.289005 34.062724,40.825988 43.114007,22.872087 58.481582,9.9364581 78,3.8418631 84.431294,1.8337017 87.42367,1.5174237 99,1.6222763 c 9.99879,0.090564 14.5374,0.5479416 17.5,1.7635601 3.28115,1.3463246 3.46086,1.5420176 1,1.0889227 -1.65,-0.3037986 -7.32485,-0.8170472 -12.61077,-1.1405525 L 95.278463,2.7460152 87.389231,7.5292662 C 72.325202,16.662606 60.187985,29.733701 52.386674,45.225036 c -5.212157,10.349961 -5.185483,10.392052 10.372491,16.367462 7.292541,2.800875 13.555041,5.388375 13.916667,5.75 1.002672,1.002673 0.73237,0.914281 -13.175832,-4.308632 z"
       id="path835"
       inkscape:connector-curvature="0" />
    <path
       style="fill:#fdc72f"
       d="M 49.377119,52.801257 C 48.736503,50.116608 50.969905,47.443403 52.444459,45.11029 61.541374,30.716697 72.371754,16.634239 87.180032,7.6562586 94.671054,3.1145932 95.052518,3.0029118 102.68003,3.1183148 106.98101,3.1833879 111.85,3.5405931 113.5,3.9121041 l 3,0.6754745 -2.68696,0.7094418 c -1.47784,0.390193 -6.46545,4.2860912 -11.0836,8.6575516 -4.894293,4.632858 -10.241237,8.698352 -12.818963,9.746769 -2.432284,0.989262 -10.36622,4.844403 -17.630969,8.566978 -11.294898,5.78769 -13.656487,7.41925 -16.299715,11.261051 -2.981724,4.333787 -3.700934,6.493361 -5.432442,10.304117 -1.390838,3.061001 -1.049504,-0.526291 -1.170232,-1.03223 z"
       id="path833"
       inkscape:connector-curvature="0"
       sodipodi:nodetypes="aasssccsssssa" />
    <path
       style="fill:#449ffd"
       d="m 57.223808,180.20771 c 15.523381,5.61589 29.54891,10.19665 31.167835,10.17949 5.911782,-0.0627 6.346725,-0.91455 21.212207,-41.5439 7.7729,-21.24435 14.32617,-39.45472 14.56282,-40.4675 1.56273,-6.68792 -1.37448,-9.398401 -16.09865,-14.856079 -8.874411,-3.289399 -11.31963,-3.840952 -11.31963,-3.840952 0,0 -5.076365,14.345831 -10.247485,28.251781 -5.171116,13.90592 -8.996533,25.63601 -8.50092,26.06683 0.495611,0.43083 3.982229,-0.74377 7.748036,-2.61022 3.765809,-1.86646 8.063826,-3.53024 9.551155,-3.69731 3.817321,-0.42882 7.214294,3.34434 6.421664,7.13283 -0.56518,2.7014 -1.53835,3.30091 -16.503351,10.16658 -19.437517,8.91758 -20.515239,9.24889 -23.015609,7.07535 -2.217497,-1.92764 -16.093687,-31.40343 -16.542975,-35.14056 -0.505249,-4.20267 2.895935,-6.771 7.525769,-5.68295 2.142657,0.50353 3.077454,1.83517 6.648429,9.47056 2.285372,4.88653 4.58779,8.75002 5.116485,8.58553 0.528695,-0.1645 5.105062,-11.58911 10.169715,-25.38805 5.064646,-13.79892 9.681674,-25.633339 10.260063,-26.2987 1.30634,-1.502772 -0.08956,-2.80336 -3.379396,-3.148645 -2.940855,-0.30866 -33.438053,13.48229 -35.736574,16.160225 -2.499765,2.91237 -22.328468,58.50316 -22.185728,62.19883 0.08588,2.22356 0.916942,3.95005 2.524906,5.24534 1.318295,1.06195 15.097843,6.52564 30.621234,12.14152 z"
       id="path831"
       inkscape:connector-curvature="0"
       sodipodi:nodetypes="ssssscssscssscssssscsscs" />
    <path
       style="fill:#9468df"
       d="m 150,95.391305 c -19.50033,-7.034321 -34.0134,-12.711243 -33.58683,-13.137804 0.24218,-0.242184 6.59642,1.866863 14.12053,4.68677 9.80661,3.675352 14.03356,4.833833 14.92818,4.091365 1.56726,-1.300709 5.1546,-13.45656 6.50181,-22.031636 1.61091,-10.253527 1.25635,-23.952026 -0.84799,-32.762573 -2.22903,-9.332583 -3.95401,-12.915588 -8.92227,-18.532654 L 138.5,13.52902 l 5.21016,4.295253 C 153.81252,26.152651 162.9393,40.930391 166.67,55 c 4.21438,15.893709 0.26554,44.435387 -6.07499,43.909112 C 159.99276,98.859124 155.225,97.27611 150,95.391305 Z"
       id="path829"
       inkscape:connector-curvature="0"
       sodipodi:nodetypes="scssssscssss" />
    <path
       style="fill:#fdaf19"
       d="M 63.132885,60.972444 C 56.369215,58.33035 50.620999,55.954332 50.359071,55.692404 49.602162,54.935495 52.609224,48.428323 55.979793,43.52937 58.623021,39.687569 60.98461,38.056009 72.279508,32.268319 79.544257,28.545744 87.51581,24.685192 89.994071,23.689315 92.531011,22.669858 97.340353,19.134482 101,15.598789 108.96543,7.9031562 112.77154,4.998847 114.88486,5.0037381 c 0.93909,0.00217 0.25203,0.8348379 -1.64143,1.9892963 C 102.85159,13.32903 88.821418,33.910771 79.060499,57.138126 l -3.630032,8.638126 z"
       id="path827"
       inkscape:connector-curvature="0" />
    <path
       style="fill:#f75169"
       d="m 108.5,79.744751 c -5.86973,-2.457507 -6.02224,-2.55584 -5.21538,-3.3627 0.82767,-0.827671 10.55312,2.717515 11.89698,4.336766 1.5433,1.85956 -0.69176,1.533725 -6.6816,-0.974066 z M 83,70.04496 C 79.371875,68.544142 76.364257,66.651655 76.192768,65.761637 75.764088,63.536812 84.947793,43.287175 90.71097,33.749684 99.760823,18.773067 110.67422,6.8728206 116.75974,5.3454538 c 3.03022,-0.7605383 9.18391,1.1198497 15.96913,4.8797042 6.23431,3.454584 8.2402,5.820033 2.41551,2.848497 C 132.90879,11.933145 130.90222,11 130.68532,11 c -0.21689,0 -0.64983,5.5125 -0.96209,12.25 -0.59085,12.748833 -3.55771,26.649705 -7.66022,35.891197 -2.01821,4.54628 -2.19841,4.672219 -8.81168,6.158122 C 109.5381,66.133628 103.575,67.36927 100,68.045191 c -3.575,0.675922 -7.4,2.007363 -8.5,2.95876 -1.907886,1.650142 -2.299371,1.605973 -8.5,-0.958991 z"
       id="path825"
       inkscape:connector-curvature="0" />
    <path
       style="fill:#ac3188"
       d="m 131.5,87.3788 c -6.6,-2.48043 -14.22758,-5.806666 -14.22758,-5.806666 0,0 1.97802,-4.098058 2.80894,-6.213809 2.23978,-5.703041 4.35155,-11.48448 5.85009,-17.425493 1.7973,-7.12544 2.76976,-14.442184 3.7356,-21.727054 0.47848,-3.608942 0.8021,-7.239902 1.01813,-10.87401 0.30648,-5.155684 0.39342,-15.4893616 0.39342,-15.4893616 0,0 6.11239,3.2612466 8.66434,5.5538336 2.7342,2.456308 5.0574,5.418837 6.9076,8.594691 1.81416,3.113996 3.19927,6.532364 3.99053,10.048335 2.183,9.700129 2.59608,21.501338 1.92821,29.765819 -0.4541,5.619293 -1.59459,10.706667 -2.95149,15.935735 -1.07638,4.148062 -4.10084,12.18476 -4.10084,12.18476 0,0 -7.41695,-2.06635 -14.01695,-4.54678 z"
       id="path821"
       inkscape:connector-curvature="0"
       sodipodi:nodetypes="scaaaacaaasacs" />
    <path
       style="fill:#115fd9"
       d="m 60.589611,160.75 c -0.801073,-1.2375 -4.703437,-9.42274 -8.67192,-18.18943 -6.789949,-14.99952 -7.131096,-16.09042 -5.785361,-18.5 1.887265,-3.37921 6.926412,-3.99824 9.526053,-1.17022 1.01289,1.10187 3.165101,5.1773 4.782692,9.05652 C 62.058666,135.82609 63.921466,139 64.580631,139 65.239796,139 69.90913,127.8625 74.956929,114.25 81.17185,98.633616 85.341538,87.873224 90.807264,72.704516 l 10.554916,2.119759 c 0,0 -10.939944,33.029935 -14.872313,43.357745 -5.230574,13.7369 -9.271966,25.36153 -8.980872,25.83253 0.291094,0.471 4.563429,-0.93429 9.494078,-3.12287 7.704313,-3.41973 9.283435,-3.81142 11.230871,-2.78575 4.208016,2.21627 5.089946,6.38599 1.951426,9.22632 C 97.394508,149.85794 67.584156,163 64.645945,163 c -1.597909,0 -3.161146,-0.86711 -4.056334,-2.25 z"
       id="path819"
       inkscape:connector-curvature="0"
       sodipodi:nodetypes="ssscssccccssscss" />
    <path
       style="fill:#e13b78"
       d="m 104,76.445724 c -2.84934,-0.972007 -5.862022,-1.199869 -8.748938,-2.242315 -4.851685,-1.751912 -5.116573,-2.00994 -3.5,-3.40936 C 92.712978,69.961348 96.425,68.725691 100,68.048145 c 3.575,-0.677545 9.5381,-1.914517 13.25133,-2.748826 6.61327,-1.485903 6.79347,-1.611842 8.81168,-6.158122 8.03951,-16.488054 8.83248,-48.117838 8.83248,-48.117838 0,0 0.36571,30.81698 -6.86022,52.182686 C 120.53938,73.54272 116.89857,82 116.89857,82 c 0,0 -8.46807,-4.04288 -12.89857,-5.554276 z"
       id="path823"
       inkscape:connector-curvature="0"
       sodipodi:nodetypes="sssssccccs" />
  </g>
</svg>
